M48
; DRILL file {KiCad 5.1.6-c6e7f7d~87~ubuntu19.10.1} date Mon Nov  2 18:57:53 2020
; FORMAT={-:-/ absolute / metric / decimal}
; #@! TF.CreationDate,2020-11-02T18:57:53+01:00
; #@! TF.GenerationSoftware,Kicad,Pcbnew,5.1.6-c6e7f7d~87~ubuntu19.10.1
; #@! TF.FileFunction,Plated,1,2,PTH
FMAT,2
METRIC
T1C0.400
T2C0.500
T3C0.762
%
G90
G05
T1
X74.88Y-42.903
X74.88Y-49.753
X76.175Y-51.549
X76.18Y-42.903
X78.702Y-51.562
X78.715Y-40.45
T2
X68.58Y-55.003
X70.78Y-50.503
X73.28Y-47.003
X73.28Y-48.853
X73.68Y-43.253
X76.23Y-45.653
X78.43Y-55.303
X81.73Y-46.603
X81.98Y-44.603
X83.43Y-48.903
T3
X68.098Y-39.05
X68.098Y-53.05
X70.598Y-39.05
X70.598Y-53.05
X73.098Y-39.05
X73.098Y-53.05
X75.598Y-39.05
X75.598Y-53.05
X78.098Y-39.05
X78.098Y-53.05
X80.598Y-39.05
X80.598Y-53.05
X83.098Y-39.05
X83.098Y-53.05
X85.598Y-39.05
X85.598Y-53.05
T0
M30
