G04 #@! TF.GenerationSoftware,KiCad,Pcbnew,5.1.6-c6e7f7d~87~ubuntu19.10.1*
G04 #@! TF.CreationDate,2020-11-04T01:00:01+01:00*
G04 #@! TF.ProjectId,board_attiny2313a,626f6172-645f-4617-9474-696e79323331,rev?*
G04 #@! TF.SameCoordinates,Original*
G04 #@! TF.FileFunction,Legend,Bot*
G04 #@! TF.FilePolarity,Positive*
%FSLAX46Y46*%
G04 Gerber Fmt 4.6, Leading zero omitted, Abs format (unit mm)*
G04 Created by KiCad (PCBNEW 5.1.6-c6e7f7d~87~ubuntu19.10.1) date 2020-11-04 01:00:01*
%MOMM*%
%LPD*%
G01*
G04 APERTURE LIST*
%ADD10C,0.120000*%
%ADD11C,0.150000*%
G04 APERTURE END LIST*
D10*
X82269600Y-42249667D02*
X82269600Y-41907133D01*
X83289600Y-42249667D02*
X83289600Y-41907133D01*
D11*
X81704600Y-43797400D02*
X81704600Y-47947400D01*
X76554600Y-42697400D02*
X76554600Y-47947400D01*
D10*
X74583333Y-44913400D02*
X74925867Y-44913400D01*
X74583333Y-43893400D02*
X74925867Y-43893400D01*
X82919600Y-46649667D02*
X82919600Y-46307133D01*
X83939600Y-46649667D02*
X83939600Y-46307133D01*
X80154600Y-54262400D02*
X82614600Y-54262400D01*
X82614600Y-54262400D02*
X82614600Y-55732400D01*
X82614600Y-55732400D02*
X80154600Y-55732400D01*
X73139600Y-55738400D02*
X70679600Y-55738400D01*
X73139600Y-54268400D02*
X73139600Y-55738400D01*
X70679600Y-54268400D02*
X73139600Y-54268400D01*
X71153600Y-42238400D02*
X71153600Y-42618400D01*
X67103600Y-42238400D02*
X66843600Y-42238400D01*
X71153600Y-42238400D02*
X69383600Y-42238400D01*
X71153600Y-49858400D02*
X71153600Y-49478400D01*
X69383600Y-49858400D02*
X71153600Y-49858400D01*
X66843600Y-49858400D02*
X67103600Y-49858400D01*
X84975867Y-55507400D02*
X84633333Y-55507400D01*
X84975867Y-54487400D02*
X84633333Y-54487400D01*
X76000867Y-54493400D02*
X75658333Y-54493400D01*
X76000867Y-55513400D02*
X75658333Y-55513400D01*
X78683333Y-42013400D02*
X79025867Y-42013400D01*
X78683333Y-40993400D02*
X79025867Y-40993400D01*
X74769600Y-47649667D02*
X74769600Y-47307133D01*
X75789600Y-47649667D02*
X75789600Y-47307133D01*
D11*
X85412933Y-45245780D02*
X85412933Y-45960066D01*
X85460552Y-46102923D01*
X85555790Y-46198161D01*
X85698647Y-46245780D01*
X85793885Y-46245780D01*
X85031980Y-45245780D02*
X84412933Y-45245780D01*
X84746266Y-45626733D01*
X84603409Y-45626733D01*
X84508171Y-45674352D01*
X84460552Y-45721971D01*
X84412933Y-45817209D01*
X84412933Y-46055304D01*
X84460552Y-46150542D01*
X84508171Y-46198161D01*
X84603409Y-46245780D01*
X84889123Y-46245780D01*
X84984361Y-46198161D01*
X85031980Y-46150542D01*
X85412933Y-51695780D02*
X85412933Y-52410066D01*
X85460552Y-52552923D01*
X85555790Y-52648161D01*
X85698647Y-52695780D01*
X85793885Y-52695780D01*
X84984361Y-51791019D02*
X84936742Y-51743400D01*
X84841504Y-51695780D01*
X84603409Y-51695780D01*
X84508171Y-51743400D01*
X84460552Y-51791019D01*
X84412933Y-51886257D01*
X84412933Y-51981495D01*
X84460552Y-52124352D01*
X85031980Y-52695780D01*
X84412933Y-52695780D01*
X84566742Y-41911733D02*
X84614361Y-41864114D01*
X84661980Y-41721257D01*
X84661980Y-41626019D01*
X84614361Y-41483161D01*
X84519123Y-41387923D01*
X84423885Y-41340304D01*
X84233409Y-41292685D01*
X84090552Y-41292685D01*
X83900076Y-41340304D01*
X83804838Y-41387923D01*
X83709600Y-41483161D01*
X83661980Y-41626019D01*
X83661980Y-41721257D01*
X83709600Y-41864114D01*
X83757219Y-41911733D01*
X83757219Y-42292685D02*
X83709600Y-42340304D01*
X83661980Y-42435542D01*
X83661980Y-42673638D01*
X83709600Y-42768876D01*
X83757219Y-42816495D01*
X83852457Y-42864114D01*
X83947695Y-42864114D01*
X84090552Y-42816495D01*
X84661980Y-42245066D01*
X84661980Y-42864114D01*
X75281980Y-45110495D02*
X76091504Y-45110495D01*
X76186742Y-45158114D01*
X76234361Y-45205733D01*
X76281980Y-45300971D01*
X76281980Y-45491447D01*
X76234361Y-45586685D01*
X76186742Y-45634304D01*
X76091504Y-45681923D01*
X75281980Y-45681923D01*
X75377219Y-46110495D02*
X75329600Y-46158114D01*
X75281980Y-46253352D01*
X75281980Y-46491447D01*
X75329600Y-46586685D01*
X75377219Y-46634304D01*
X75472457Y-46681923D01*
X75567695Y-46681923D01*
X75710552Y-46634304D01*
X76281980Y-46062876D01*
X76281980Y-46681923D01*
X74921266Y-46190542D02*
X74968885Y-46238161D01*
X75111742Y-46285780D01*
X75206980Y-46285780D01*
X75349838Y-46238161D01*
X75445076Y-46142923D01*
X75492695Y-46047685D01*
X75540314Y-45857209D01*
X75540314Y-45714352D01*
X75492695Y-45523876D01*
X75445076Y-45428638D01*
X75349838Y-45333400D01*
X75206980Y-45285780D01*
X75111742Y-45285780D01*
X74968885Y-45333400D01*
X74921266Y-45381019D01*
X73968885Y-46285780D02*
X74540314Y-46285780D01*
X74254600Y-46285780D02*
X74254600Y-45285780D01*
X74349838Y-45428638D01*
X74445076Y-45523876D01*
X74540314Y-45571495D01*
X84502457Y-46645066D02*
X84454838Y-46692685D01*
X84407219Y-46835542D01*
X84407219Y-46930780D01*
X84454838Y-47073638D01*
X84550076Y-47168876D01*
X84645314Y-47216495D01*
X84835790Y-47264114D01*
X84978647Y-47264114D01*
X85169123Y-47216495D01*
X85264361Y-47168876D01*
X85359600Y-47073638D01*
X85407219Y-46930780D01*
X85407219Y-46835542D01*
X85359600Y-46692685D01*
X85311980Y-46645066D01*
X85407219Y-46311733D02*
X85407219Y-45692685D01*
X85026266Y-46026019D01*
X85026266Y-45883161D01*
X84978647Y-45787923D01*
X84931028Y-45740304D01*
X84835790Y-45692685D01*
X84597695Y-45692685D01*
X84502457Y-45740304D01*
X84454838Y-45787923D01*
X84407219Y-45883161D01*
X84407219Y-46168876D01*
X84454838Y-46264114D01*
X84502457Y-46311733D01*
X81692695Y-54019780D02*
X81692695Y-53019780D01*
X81454600Y-53019780D01*
X81311742Y-53067400D01*
X81216504Y-53162638D01*
X81168885Y-53257876D01*
X81121266Y-53448352D01*
X81121266Y-53591209D01*
X81168885Y-53781685D01*
X81216504Y-53876923D01*
X81311742Y-53972161D01*
X81454600Y-54019780D01*
X81692695Y-54019780D01*
X80168885Y-54019780D02*
X80740314Y-54019780D01*
X80454600Y-54019780D02*
X80454600Y-53019780D01*
X80549838Y-53162638D01*
X80645076Y-53257876D01*
X80740314Y-53305495D01*
X72217695Y-54025780D02*
X72217695Y-53025780D01*
X71979600Y-53025780D01*
X71836742Y-53073400D01*
X71741504Y-53168638D01*
X71693885Y-53263876D01*
X71646266Y-53454352D01*
X71646266Y-53597209D01*
X71693885Y-53787685D01*
X71741504Y-53882923D01*
X71836742Y-53978161D01*
X71979600Y-54025780D01*
X72217695Y-54025780D01*
X71265314Y-53121019D02*
X71217695Y-53073400D01*
X71122457Y-53025780D01*
X70884361Y-53025780D01*
X70789123Y-53073400D01*
X70741504Y-53121019D01*
X70693885Y-53216257D01*
X70693885Y-53311495D01*
X70741504Y-53454352D01*
X71312933Y-54025780D01*
X70693885Y-54025780D01*
X73291219Y-46381733D02*
X72576933Y-46381733D01*
X72434076Y-46429352D01*
X72338838Y-46524590D01*
X72291219Y-46667447D01*
X72291219Y-46762685D01*
X72291219Y-45381733D02*
X72291219Y-45953161D01*
X72291219Y-45667447D02*
X73291219Y-45667447D01*
X73148361Y-45762685D01*
X73053123Y-45857923D01*
X73005504Y-45953161D01*
X84971266Y-54019780D02*
X85304600Y-53543590D01*
X85542695Y-54019780D02*
X85542695Y-53019780D01*
X85161742Y-53019780D01*
X85066504Y-53067400D01*
X85018885Y-53115019D01*
X84971266Y-53210257D01*
X84971266Y-53353114D01*
X85018885Y-53448352D01*
X85066504Y-53495971D01*
X85161742Y-53543590D01*
X85542695Y-53543590D01*
X84018885Y-54019780D02*
X84590314Y-54019780D01*
X84304600Y-54019780D02*
X84304600Y-53019780D01*
X84399838Y-53162638D01*
X84495076Y-53257876D01*
X84590314Y-53305495D01*
X75996266Y-54025780D02*
X76329600Y-53549590D01*
X76567695Y-54025780D02*
X76567695Y-53025780D01*
X76186742Y-53025780D01*
X76091504Y-53073400D01*
X76043885Y-53121019D01*
X75996266Y-53216257D01*
X75996266Y-53359114D01*
X76043885Y-53454352D01*
X76091504Y-53501971D01*
X76186742Y-53549590D01*
X76567695Y-53549590D01*
X75615314Y-53121019D02*
X75567695Y-53073400D01*
X75472457Y-53025780D01*
X75234361Y-53025780D01*
X75139123Y-53073400D01*
X75091504Y-53121019D01*
X75043885Y-53216257D01*
X75043885Y-53311495D01*
X75091504Y-53454352D01*
X75662933Y-54025780D01*
X75043885Y-54025780D01*
X79021266Y-43385780D02*
X79354600Y-42909590D01*
X79592695Y-43385780D02*
X79592695Y-42385780D01*
X79211742Y-42385780D01*
X79116504Y-42433400D01*
X79068885Y-42481019D01*
X79021266Y-42576257D01*
X79021266Y-42719114D01*
X79068885Y-42814352D01*
X79116504Y-42861971D01*
X79211742Y-42909590D01*
X79592695Y-42909590D01*
X78687933Y-42385780D02*
X78068885Y-42385780D01*
X78402219Y-42766733D01*
X78259361Y-42766733D01*
X78164123Y-42814352D01*
X78116504Y-42861971D01*
X78068885Y-42957209D01*
X78068885Y-43195304D01*
X78116504Y-43290542D01*
X78164123Y-43338161D01*
X78259361Y-43385780D01*
X78545076Y-43385780D01*
X78640314Y-43338161D01*
X78687933Y-43290542D01*
X77161980Y-47311733D02*
X76685790Y-46978400D01*
X77161980Y-46740304D02*
X76161980Y-46740304D01*
X76161980Y-47121257D01*
X76209600Y-47216495D01*
X76257219Y-47264114D01*
X76352457Y-47311733D01*
X76495314Y-47311733D01*
X76590552Y-47264114D01*
X76638171Y-47216495D01*
X76685790Y-47121257D01*
X76685790Y-46740304D01*
X76495314Y-48168876D02*
X77161980Y-48168876D01*
X76114361Y-47930780D02*
X76828647Y-47692685D01*
X76828647Y-48311733D01*
M02*
