G04 #@! TF.GenerationSoftware,KiCad,Pcbnew,5.1.6-c6e7f7d~87~ubuntu19.10.1*
G04 #@! TF.CreationDate,2020-11-04T01:00:01+01:00*
G04 #@! TF.ProjectId,board_attiny2313a,626f6172-645f-4617-9474-696e79323331,rev?*
G04 #@! TF.SameCoordinates,Original*
G04 #@! TF.FileFunction,Soldermask,Top*
G04 #@! TF.FilePolarity,Negative*
%FSLAX46Y46*%
G04 Gerber Fmt 4.6, Leading zero omitted, Abs format (unit mm)*
G04 Created by KiCad (PCBNEW 5.1.6-c6e7f7d~87~ubuntu19.10.1) date 2020-11-04 01:00:01*
%MOMM*%
%LPD*%
G01*
G04 APERTURE LIST*
%ADD10C,1.924000*%
%ADD11C,1.300000*%
%ADD12R,1.900000X1.100000*%
%ADD13R,1.200000X1.400000*%
%ADD14R,1.000000X2.350000*%
G04 APERTURE END LIST*
G36*
G01*
X72367100Y-50003400D02*
X71692100Y-50003400D01*
G75*
G02*
X71354600Y-49665900I0J337500D01*
G01*
X71354600Y-48890900D01*
G75*
G02*
X71692100Y-48553400I337500J0D01*
G01*
X72367100Y-48553400D01*
G75*
G02*
X72704600Y-48890900I0J-337500D01*
G01*
X72704600Y-49665900D01*
G75*
G02*
X72367100Y-50003400I-337500J0D01*
G01*
G37*
G36*
G01*
X72367100Y-51753400D02*
X71692100Y-51753400D01*
G75*
G02*
X71354600Y-51415900I0J337500D01*
G01*
X71354600Y-50640900D01*
G75*
G02*
X71692100Y-50303400I337500J0D01*
G01*
X72367100Y-50303400D01*
G75*
G02*
X72704600Y-50640900I0J-337500D01*
G01*
X72704600Y-51415900D01*
G75*
G02*
X72367100Y-51753400I-337500J0D01*
G01*
G37*
D10*
X68097700Y-53050200D03*
X70597700Y-53050200D03*
X73097700Y-53050200D03*
X75597700Y-53050200D03*
X78097700Y-53050200D03*
X80597700Y-53050200D03*
X83097700Y-53050200D03*
X85597700Y-53050200D03*
X85597700Y-39050200D03*
X83097700Y-39050200D03*
X80597700Y-39050200D03*
X78097700Y-39050200D03*
X75597700Y-39050200D03*
X73097700Y-39050200D03*
X70597700Y-39050200D03*
X68097700Y-39050200D03*
D11*
X68499600Y-44503400D03*
X68499600Y-47503400D03*
D12*
X70259600Y-43753400D03*
X70259600Y-46753400D03*
X70259600Y-48253400D03*
D13*
X67399600Y-42353400D03*
X67399600Y-49653400D03*
X69609600Y-49653400D03*
X69609600Y-42353400D03*
D14*
X73634600Y-50750200D03*
X74904600Y-50750200D03*
X76174600Y-50750200D03*
X77444600Y-50750200D03*
X78714600Y-50750200D03*
X79984600Y-50750200D03*
X81254600Y-50750200D03*
X82524600Y-50750200D03*
X83794600Y-50750200D03*
X85064600Y-50750200D03*
X85064600Y-41350200D03*
X83794600Y-41350200D03*
X82524600Y-41350200D03*
X81254600Y-41350200D03*
X79984600Y-41350200D03*
X78714600Y-41350200D03*
X77444600Y-41350200D03*
X76174600Y-41350200D03*
X74904600Y-41350200D03*
X73634600Y-41350200D03*
M02*
