%FSLAX45Y45*%
G04 Gerber Fmt 4.5, Leading zero omitted, Abs format (unit mm)*
G04 Created by KiCad (PCBNEW 5.1.6-c6e7f7d~87~ubuntu19.10.1) date 2020-11-02 18:57:57*
%MOMM*%
%LPD*%
G01*
G04 APERTURE LIST*
%TA.AperFunction,Profile*%
%ADD10C,0.150000*%
%TD*%
%ADD11C,0.200000*%
%ADD12C,0.300000*%
G04 APERTURE END LIST*
D10*
X6677960Y-3605340D02*
X6687960Y-3605340D01*
X6677960Y-5605340D02*
X6677960Y-3605340D01*
X6687960Y-5605340D02*
X6677960Y-5605340D01*
X8687960Y-5605340D02*
X6687960Y-5605340D01*
X8687960Y-3605340D02*
X8687960Y-5605340D01*
X6687960Y-3605340D02*
X8687960Y-3605340D01*
D11*
X7467960Y-4270340D02*
X7507960Y-4310340D01*
X7507960Y-4270340D02*
X7467960Y-4310340D01*
X7467960Y-4955340D02*
X7507960Y-4995340D01*
X7507960Y-4955340D02*
X7467960Y-4995340D01*
X7597460Y-5134930D02*
X7637460Y-5174930D01*
X7637460Y-5134930D02*
X7597460Y-5174930D01*
X7597960Y-4270340D02*
X7637960Y-4310340D01*
X7637960Y-4270340D02*
X7597960Y-4310340D01*
X7850196Y-5136206D02*
X7890196Y-5176206D01*
X7890196Y-5136206D02*
X7850196Y-5176206D01*
X7851460Y-4024950D02*
X7891460Y-4064950D01*
X7891460Y-4024950D02*
X7851460Y-4064950D01*
X6882960Y-5500340D02*
G75*
G03*
X6882960Y-5500340I-25000J0D01*
G01*
X7102960Y-5050340D02*
G75*
G03*
X7102960Y-5050340I-25000J0D01*
G01*
X7352960Y-4700340D02*
G75*
G03*
X7352960Y-4700340I-25000J0D01*
G01*
X7352960Y-4885340D02*
G75*
G03*
X7352960Y-4885340I-25000J0D01*
G01*
X7392960Y-4325340D02*
G75*
G03*
X7392960Y-4325340I-25000J0D01*
G01*
X7647960Y-4565340D02*
G75*
G03*
X7647960Y-4565340I-25000J0D01*
G01*
X7867960Y-5530340D02*
G75*
G03*
X7867960Y-5530340I-25000J0D01*
G01*
X8197960Y-4660340D02*
G75*
G03*
X8197960Y-4660340I-25000J0D01*
G01*
X8222960Y-4460340D02*
G75*
G03*
X8222960Y-4460340I-25000J0D01*
G01*
X8367960Y-4890340D02*
G75*
G03*
X8367960Y-4890340I-25000J0D01*
G01*
X6809770Y-3866920D02*
X6809770Y-3943120D01*
X6771670Y-3905020D02*
X6847870Y-3905020D01*
X6809770Y-5266920D02*
X6809770Y-5343120D01*
X6771670Y-5305020D02*
X6847870Y-5305020D01*
X7059770Y-3866920D02*
X7059770Y-3943120D01*
X7021670Y-3905020D02*
X7097870Y-3905020D01*
X7059770Y-5266920D02*
X7059770Y-5343120D01*
X7021670Y-5305020D02*
X7097870Y-5305020D01*
X7309770Y-3866920D02*
X7309770Y-3943120D01*
X7271670Y-3905020D02*
X7347870Y-3905020D01*
X7309770Y-5266920D02*
X7309770Y-5343120D01*
X7271670Y-5305020D02*
X7347870Y-5305020D01*
X7559770Y-3866920D02*
X7559770Y-3943120D01*
X7521670Y-3905020D02*
X7597870Y-3905020D01*
X7559770Y-5266920D02*
X7559770Y-5343120D01*
X7521670Y-5305020D02*
X7597870Y-5305020D01*
X7809770Y-3866920D02*
X7809770Y-3943120D01*
X7771670Y-3905020D02*
X7847870Y-3905020D01*
X7809770Y-5266920D02*
X7809770Y-5343120D01*
X7771670Y-5305020D02*
X7847870Y-5305020D01*
X8059770Y-3866920D02*
X8059770Y-3943120D01*
X8021670Y-3905020D02*
X8097870Y-3905020D01*
X8059770Y-5266920D02*
X8059770Y-5343120D01*
X8021670Y-5305020D02*
X8097870Y-5305020D01*
X8309770Y-3866920D02*
X8309770Y-3943120D01*
X8271670Y-3905020D02*
X8347870Y-3905020D01*
X8309770Y-5266920D02*
X8309770Y-5343120D01*
X8271670Y-5305020D02*
X8347870Y-5305020D01*
X8559770Y-3866920D02*
X8559770Y-3943120D01*
X8521670Y-3905020D02*
X8597870Y-3905020D01*
X8559770Y-5266920D02*
X8559770Y-5343120D01*
X8521670Y-5305020D02*
X8597870Y-5305020D01*
D12*
X6956888Y-6078554D02*
X6956888Y-5778554D01*
X7028317Y-5778554D01*
X7071174Y-5792840D01*
X7099746Y-5821411D01*
X7114031Y-5849983D01*
X7128317Y-5907126D01*
X7128317Y-5949983D01*
X7114031Y-6007126D01*
X7099746Y-6035697D01*
X7071174Y-6064269D01*
X7028317Y-6078554D01*
X6956888Y-6078554D01*
X7256888Y-6078554D02*
X7256888Y-5878554D01*
X7256888Y-5935697D02*
X7271174Y-5907126D01*
X7285460Y-5892840D01*
X7314031Y-5878554D01*
X7342603Y-5878554D01*
X7442603Y-6078554D02*
X7442603Y-5878554D01*
X7442603Y-5778554D02*
X7428317Y-5792840D01*
X7442603Y-5807126D01*
X7456888Y-5792840D01*
X7442603Y-5778554D01*
X7442603Y-5807126D01*
X7628317Y-6078554D02*
X7599746Y-6064269D01*
X7585460Y-6035697D01*
X7585460Y-5778554D01*
X7785460Y-6078554D02*
X7756888Y-6064269D01*
X7742603Y-6035697D01*
X7742603Y-5778554D01*
X8128317Y-6078554D02*
X8128317Y-5778554D01*
X8228317Y-5992840D01*
X8328317Y-5778554D01*
X8328317Y-6078554D01*
X8599746Y-6078554D02*
X8599746Y-5921411D01*
X8585460Y-5892840D01*
X8556888Y-5878554D01*
X8499746Y-5878554D01*
X8471174Y-5892840D01*
X8599746Y-6064269D02*
X8571174Y-6078554D01*
X8499746Y-6078554D01*
X8471174Y-6064269D01*
X8456888Y-6035697D01*
X8456888Y-6007126D01*
X8471174Y-5978554D01*
X8499746Y-5964269D01*
X8571174Y-5964269D01*
X8599746Y-5949983D01*
X8742603Y-5878554D02*
X8742603Y-6178554D01*
X8742603Y-5892840D02*
X8771174Y-5878554D01*
X8828317Y-5878554D01*
X8856888Y-5892840D01*
X8871174Y-5907126D01*
X8885460Y-5935697D01*
X8885460Y-6021411D01*
X8871174Y-6049983D01*
X8856888Y-6064269D01*
X8828317Y-6078554D01*
X8771174Y-6078554D01*
X8742603Y-6064269D01*
X9014031Y-6049983D02*
X9028317Y-6064269D01*
X9014031Y-6078554D01*
X8999746Y-6064269D01*
X9014031Y-6049983D01*
X9014031Y-6078554D01*
X9014031Y-5892840D02*
X9028317Y-5907126D01*
X9014031Y-5921411D01*
X8999746Y-5907126D01*
X9014031Y-5892840D01*
X9014031Y-5921411D01*
X6630460Y-6552840D02*
X6670460Y-6592840D01*
X6670460Y-6552840D02*
X6630460Y-6592840D01*
X7014031Y-6408554D02*
X7042603Y-6408554D01*
X7071174Y-6422840D01*
X7085460Y-6437126D01*
X7099746Y-6465697D01*
X7114031Y-6522840D01*
X7114031Y-6594269D01*
X7099746Y-6651411D01*
X7085460Y-6679983D01*
X7071174Y-6694269D01*
X7042603Y-6708554D01*
X7014031Y-6708554D01*
X6985460Y-6694269D01*
X6971174Y-6679983D01*
X6956888Y-6651411D01*
X6942603Y-6594269D01*
X6942603Y-6522840D01*
X6956888Y-6465697D01*
X6971174Y-6437126D01*
X6985460Y-6422840D01*
X7014031Y-6408554D01*
X7242603Y-6679983D02*
X7256888Y-6694269D01*
X7242603Y-6708554D01*
X7228317Y-6694269D01*
X7242603Y-6679983D01*
X7242603Y-6708554D01*
X7514031Y-6508554D02*
X7514031Y-6708554D01*
X7442603Y-6394269D02*
X7371174Y-6608554D01*
X7556888Y-6608554D01*
X7728317Y-6408554D02*
X7756888Y-6408554D01*
X7785460Y-6422840D01*
X7799746Y-6437126D01*
X7814031Y-6465697D01*
X7828317Y-6522840D01*
X7828317Y-6594269D01*
X7814031Y-6651411D01*
X7799746Y-6679983D01*
X7785460Y-6694269D01*
X7756888Y-6708554D01*
X7728317Y-6708554D01*
X7699746Y-6694269D01*
X7685460Y-6679983D01*
X7671174Y-6651411D01*
X7656888Y-6594269D01*
X7656888Y-6522840D01*
X7671174Y-6465697D01*
X7685460Y-6437126D01*
X7699746Y-6422840D01*
X7728317Y-6408554D01*
X7956888Y-6708554D02*
X7956888Y-6508554D01*
X7956888Y-6537126D02*
X7971174Y-6522840D01*
X7999746Y-6508554D01*
X8042603Y-6508554D01*
X8071174Y-6522840D01*
X8085460Y-6551411D01*
X8085460Y-6708554D01*
X8085460Y-6551411D02*
X8099746Y-6522840D01*
X8128317Y-6508554D01*
X8171174Y-6508554D01*
X8199746Y-6522840D01*
X8214031Y-6551411D01*
X8214031Y-6708554D01*
X8356888Y-6708554D02*
X8356888Y-6508554D01*
X8356888Y-6537126D02*
X8371174Y-6522840D01*
X8399746Y-6508554D01*
X8442603Y-6508554D01*
X8471174Y-6522840D01*
X8485460Y-6551411D01*
X8485460Y-6708554D01*
X8485460Y-6551411D02*
X8499746Y-6522840D01*
X8528317Y-6508554D01*
X8571174Y-6508554D01*
X8599746Y-6522840D01*
X8614031Y-6551411D01*
X8614031Y-6708554D01*
X9199746Y-6394269D02*
X8942603Y-6779983D01*
X9585460Y-6408554D02*
X9614031Y-6408554D01*
X9642603Y-6422840D01*
X9656888Y-6437126D01*
X9671174Y-6465697D01*
X9685460Y-6522840D01*
X9685460Y-6594269D01*
X9671174Y-6651411D01*
X9656888Y-6679983D01*
X9642603Y-6694269D01*
X9614031Y-6708554D01*
X9585460Y-6708554D01*
X9556888Y-6694269D01*
X9542603Y-6679983D01*
X9528317Y-6651411D01*
X9514031Y-6594269D01*
X9514031Y-6522840D01*
X9528317Y-6465697D01*
X9542603Y-6437126D01*
X9556888Y-6422840D01*
X9585460Y-6408554D01*
X9814031Y-6679983D02*
X9828317Y-6694269D01*
X9814031Y-6708554D01*
X9799746Y-6694269D01*
X9814031Y-6679983D01*
X9814031Y-6708554D01*
X10014031Y-6408554D02*
X10042603Y-6408554D01*
X10071174Y-6422840D01*
X10085460Y-6437126D01*
X10099746Y-6465697D01*
X10114031Y-6522840D01*
X10114031Y-6594269D01*
X10099746Y-6651411D01*
X10085460Y-6679983D01*
X10071174Y-6694269D01*
X10042603Y-6708554D01*
X10014031Y-6708554D01*
X9985460Y-6694269D01*
X9971174Y-6679983D01*
X9956888Y-6651411D01*
X9942603Y-6594269D01*
X9942603Y-6522840D01*
X9956888Y-6465697D01*
X9971174Y-6437126D01*
X9985460Y-6422840D01*
X10014031Y-6408554D01*
X10399746Y-6708554D02*
X10228317Y-6708554D01*
X10314031Y-6708554D02*
X10314031Y-6408554D01*
X10285460Y-6451411D01*
X10256888Y-6479983D01*
X10228317Y-6494269D01*
X10656888Y-6408554D02*
X10599746Y-6408554D01*
X10571174Y-6422840D01*
X10556888Y-6437126D01*
X10528317Y-6479983D01*
X10514031Y-6537126D01*
X10514031Y-6651411D01*
X10528317Y-6679983D01*
X10542603Y-6694269D01*
X10571174Y-6708554D01*
X10628317Y-6708554D01*
X10656888Y-6694269D01*
X10671174Y-6679983D01*
X10685460Y-6651411D01*
X10685460Y-6579983D01*
X10671174Y-6551411D01*
X10656888Y-6537126D01*
X10628317Y-6522840D01*
X10571174Y-6522840D01*
X10542603Y-6537126D01*
X10528317Y-6551411D01*
X10514031Y-6579983D01*
X10799746Y-6408554D02*
X10799746Y-6465697D01*
X10914031Y-6408554D02*
X10914031Y-6465697D01*
X11356888Y-6822840D02*
X11342603Y-6808554D01*
X11314031Y-6765697D01*
X11299746Y-6737126D01*
X11285460Y-6694269D01*
X11271174Y-6622840D01*
X11271174Y-6565697D01*
X11285460Y-6494269D01*
X11299746Y-6451411D01*
X11314031Y-6422840D01*
X11342603Y-6379983D01*
X11356888Y-6365697D01*
X11599746Y-6408554D02*
X11542603Y-6408554D01*
X11514031Y-6422840D01*
X11499746Y-6437126D01*
X11471174Y-6479983D01*
X11456888Y-6537126D01*
X11456888Y-6651411D01*
X11471174Y-6679983D01*
X11485460Y-6694269D01*
X11514031Y-6708554D01*
X11571174Y-6708554D01*
X11599746Y-6694269D01*
X11614031Y-6679983D01*
X11628317Y-6651411D01*
X11628317Y-6579983D01*
X11614031Y-6551411D01*
X11599746Y-6537126D01*
X11571174Y-6522840D01*
X11514031Y-6522840D01*
X11485460Y-6537126D01*
X11471174Y-6551411D01*
X11456888Y-6579983D01*
X11985460Y-6708554D02*
X11985460Y-6408554D01*
X12114031Y-6708554D02*
X12114031Y-6551411D01*
X12099746Y-6522840D01*
X12071174Y-6508554D01*
X12028317Y-6508554D01*
X11999746Y-6522840D01*
X11985460Y-6537126D01*
X12299746Y-6708554D02*
X12271174Y-6694269D01*
X12256888Y-6679983D01*
X12242603Y-6651411D01*
X12242603Y-6565697D01*
X12256888Y-6537126D01*
X12271174Y-6522840D01*
X12299746Y-6508554D01*
X12342603Y-6508554D01*
X12371174Y-6522840D01*
X12385460Y-6537126D01*
X12399746Y-6565697D01*
X12399746Y-6651411D01*
X12385460Y-6679983D01*
X12371174Y-6694269D01*
X12342603Y-6708554D01*
X12299746Y-6708554D01*
X12571174Y-6708554D02*
X12542603Y-6694269D01*
X12528317Y-6665697D01*
X12528317Y-6408554D01*
X12799746Y-6694269D02*
X12771174Y-6708554D01*
X12714031Y-6708554D01*
X12685460Y-6694269D01*
X12671174Y-6665697D01*
X12671174Y-6551411D01*
X12685460Y-6522840D01*
X12714031Y-6508554D01*
X12771174Y-6508554D01*
X12799746Y-6522840D01*
X12814031Y-6551411D01*
X12814031Y-6579983D01*
X12671174Y-6608554D01*
X12928317Y-6694269D02*
X12956888Y-6708554D01*
X13014031Y-6708554D01*
X13042603Y-6694269D01*
X13056888Y-6665697D01*
X13056888Y-6651411D01*
X13042603Y-6622840D01*
X13014031Y-6608554D01*
X12971174Y-6608554D01*
X12942603Y-6594269D01*
X12928317Y-6565697D01*
X12928317Y-6551411D01*
X12942603Y-6522840D01*
X12971174Y-6508554D01*
X13014031Y-6508554D01*
X13042603Y-6522840D01*
X13156888Y-6822840D02*
X13171174Y-6808554D01*
X13199746Y-6765697D01*
X13214031Y-6737126D01*
X13228317Y-6694269D01*
X13242603Y-6622840D01*
X13242603Y-6565697D01*
X13228317Y-6494269D01*
X13214031Y-6451411D01*
X13199746Y-6422840D01*
X13171174Y-6379983D01*
X13156888Y-6365697D01*
X6670460Y-6968840D02*
G75*
G03*
X6670460Y-6968840I-25000J0D01*
G01*
X7014031Y-6804554D02*
X7042603Y-6804554D01*
X7071174Y-6818840D01*
X7085460Y-6833126D01*
X7099746Y-6861697D01*
X7114031Y-6918840D01*
X7114031Y-6990269D01*
X7099746Y-7047411D01*
X7085460Y-7075983D01*
X7071174Y-7090269D01*
X7042603Y-7104554D01*
X7014031Y-7104554D01*
X6985460Y-7090269D01*
X6971174Y-7075983D01*
X6956888Y-7047411D01*
X6942603Y-6990269D01*
X6942603Y-6918840D01*
X6956888Y-6861697D01*
X6971174Y-6833126D01*
X6985460Y-6818840D01*
X7014031Y-6804554D01*
X7242603Y-7075983D02*
X7256888Y-7090269D01*
X7242603Y-7104554D01*
X7228317Y-7090269D01*
X7242603Y-7075983D01*
X7242603Y-7104554D01*
X7528317Y-6804554D02*
X7385460Y-6804554D01*
X7371174Y-6947411D01*
X7385460Y-6933126D01*
X7414031Y-6918840D01*
X7485460Y-6918840D01*
X7514031Y-6933126D01*
X7528317Y-6947411D01*
X7542603Y-6975983D01*
X7542603Y-7047411D01*
X7528317Y-7075983D01*
X7514031Y-7090269D01*
X7485460Y-7104554D01*
X7414031Y-7104554D01*
X7385460Y-7090269D01*
X7371174Y-7075983D01*
X7728317Y-6804554D02*
X7756888Y-6804554D01*
X7785460Y-6818840D01*
X7799746Y-6833126D01*
X7814031Y-6861697D01*
X7828317Y-6918840D01*
X7828317Y-6990269D01*
X7814031Y-7047411D01*
X7799746Y-7075983D01*
X7785460Y-7090269D01*
X7756888Y-7104554D01*
X7728317Y-7104554D01*
X7699746Y-7090269D01*
X7685460Y-7075983D01*
X7671174Y-7047411D01*
X7656888Y-6990269D01*
X7656888Y-6918840D01*
X7671174Y-6861697D01*
X7685460Y-6833126D01*
X7699746Y-6818840D01*
X7728317Y-6804554D01*
X7956888Y-7104554D02*
X7956888Y-6904554D01*
X7956888Y-6933126D02*
X7971174Y-6918840D01*
X7999746Y-6904554D01*
X8042603Y-6904554D01*
X8071174Y-6918840D01*
X8085460Y-6947411D01*
X8085460Y-7104554D01*
X8085460Y-6947411D02*
X8099746Y-6918840D01*
X8128317Y-6904554D01*
X8171174Y-6904554D01*
X8199746Y-6918840D01*
X8214031Y-6947411D01*
X8214031Y-7104554D01*
X8356888Y-7104554D02*
X8356888Y-6904554D01*
X8356888Y-6933126D02*
X8371174Y-6918840D01*
X8399746Y-6904554D01*
X8442603Y-6904554D01*
X8471174Y-6918840D01*
X8485460Y-6947411D01*
X8485460Y-7104554D01*
X8485460Y-6947411D02*
X8499746Y-6918840D01*
X8528317Y-6904554D01*
X8571174Y-6904554D01*
X8599746Y-6918840D01*
X8614031Y-6947411D01*
X8614031Y-7104554D01*
X9199746Y-6790269D02*
X8942603Y-7175983D01*
X9585460Y-6804554D02*
X9614031Y-6804554D01*
X9642603Y-6818840D01*
X9656888Y-6833126D01*
X9671174Y-6861697D01*
X9685460Y-6918840D01*
X9685460Y-6990269D01*
X9671174Y-7047411D01*
X9656888Y-7075983D01*
X9642603Y-7090269D01*
X9614031Y-7104554D01*
X9585460Y-7104554D01*
X9556888Y-7090269D01*
X9542603Y-7075983D01*
X9528317Y-7047411D01*
X9514031Y-6990269D01*
X9514031Y-6918840D01*
X9528317Y-6861697D01*
X9542603Y-6833126D01*
X9556888Y-6818840D01*
X9585460Y-6804554D01*
X9814031Y-7075983D02*
X9828317Y-7090269D01*
X9814031Y-7104554D01*
X9799746Y-7090269D01*
X9814031Y-7075983D01*
X9814031Y-7104554D01*
X10014031Y-6804554D02*
X10042603Y-6804554D01*
X10071174Y-6818840D01*
X10085460Y-6833126D01*
X10099746Y-6861697D01*
X10114031Y-6918840D01*
X10114031Y-6990269D01*
X10099746Y-7047411D01*
X10085460Y-7075983D01*
X10071174Y-7090269D01*
X10042603Y-7104554D01*
X10014031Y-7104554D01*
X9985460Y-7090269D01*
X9971174Y-7075983D01*
X9956888Y-7047411D01*
X9942603Y-6990269D01*
X9942603Y-6918840D01*
X9956888Y-6861697D01*
X9971174Y-6833126D01*
X9985460Y-6818840D01*
X10014031Y-6804554D01*
X10228317Y-6833126D02*
X10242603Y-6818840D01*
X10271174Y-6804554D01*
X10342603Y-6804554D01*
X10371174Y-6818840D01*
X10385460Y-6833126D01*
X10399746Y-6861697D01*
X10399746Y-6890269D01*
X10385460Y-6933126D01*
X10214031Y-7104554D01*
X10399746Y-7104554D01*
X10585460Y-6804554D02*
X10614031Y-6804554D01*
X10642603Y-6818840D01*
X10656888Y-6833126D01*
X10671174Y-6861697D01*
X10685460Y-6918840D01*
X10685460Y-6990269D01*
X10671174Y-7047411D01*
X10656888Y-7075983D01*
X10642603Y-7090269D01*
X10614031Y-7104554D01*
X10585460Y-7104554D01*
X10556888Y-7090269D01*
X10542603Y-7075983D01*
X10528317Y-7047411D01*
X10514031Y-6990269D01*
X10514031Y-6918840D01*
X10528317Y-6861697D01*
X10542603Y-6833126D01*
X10556888Y-6818840D01*
X10585460Y-6804554D01*
X10799746Y-6804554D02*
X10799746Y-6861697D01*
X10914031Y-6804554D02*
X10914031Y-6861697D01*
X11356888Y-7218840D02*
X11342603Y-7204554D01*
X11314031Y-7161697D01*
X11299746Y-7133126D01*
X11285460Y-7090269D01*
X11271174Y-7018840D01*
X11271174Y-6961697D01*
X11285460Y-6890269D01*
X11299746Y-6847411D01*
X11314031Y-6818840D01*
X11342603Y-6775983D01*
X11356888Y-6761697D01*
X11628317Y-7104554D02*
X11456888Y-7104554D01*
X11542603Y-7104554D02*
X11542603Y-6804554D01*
X11514031Y-6847411D01*
X11485460Y-6875983D01*
X11456888Y-6890269D01*
X11814031Y-6804554D02*
X11842603Y-6804554D01*
X11871174Y-6818840D01*
X11885460Y-6833126D01*
X11899746Y-6861697D01*
X11914031Y-6918840D01*
X11914031Y-6990269D01*
X11899746Y-7047411D01*
X11885460Y-7075983D01*
X11871174Y-7090269D01*
X11842603Y-7104554D01*
X11814031Y-7104554D01*
X11785460Y-7090269D01*
X11771174Y-7075983D01*
X11756888Y-7047411D01*
X11742603Y-6990269D01*
X11742603Y-6918840D01*
X11756888Y-6861697D01*
X11771174Y-6833126D01*
X11785460Y-6818840D01*
X11814031Y-6804554D01*
X12271174Y-7104554D02*
X12271174Y-6804554D01*
X12399746Y-7104554D02*
X12399746Y-6947411D01*
X12385460Y-6918840D01*
X12356888Y-6904554D01*
X12314031Y-6904554D01*
X12285460Y-6918840D01*
X12271174Y-6933126D01*
X12585460Y-7104554D02*
X12556888Y-7090269D01*
X12542603Y-7075983D01*
X12528317Y-7047411D01*
X12528317Y-6961697D01*
X12542603Y-6933126D01*
X12556888Y-6918840D01*
X12585460Y-6904554D01*
X12628317Y-6904554D01*
X12656888Y-6918840D01*
X12671174Y-6933126D01*
X12685460Y-6961697D01*
X12685460Y-7047411D01*
X12671174Y-7075983D01*
X12656888Y-7090269D01*
X12628317Y-7104554D01*
X12585460Y-7104554D01*
X12856888Y-7104554D02*
X12828317Y-7090269D01*
X12814031Y-7061697D01*
X12814031Y-6804554D01*
X13085460Y-7090269D02*
X13056888Y-7104554D01*
X12999746Y-7104554D01*
X12971174Y-7090269D01*
X12956888Y-7061697D01*
X12956888Y-6947411D01*
X12971174Y-6918840D01*
X12999746Y-6904554D01*
X13056888Y-6904554D01*
X13085460Y-6918840D01*
X13099746Y-6947411D01*
X13099746Y-6975983D01*
X12956888Y-7004554D01*
X13214031Y-7090269D02*
X13242603Y-7104554D01*
X13299746Y-7104554D01*
X13328317Y-7090269D01*
X13342603Y-7061697D01*
X13342603Y-7047411D01*
X13328317Y-7018840D01*
X13299746Y-7004554D01*
X13256888Y-7004554D01*
X13228317Y-6990269D01*
X13214031Y-6961697D01*
X13214031Y-6947411D01*
X13228317Y-6918840D01*
X13256888Y-6904554D01*
X13299746Y-6904554D01*
X13328317Y-6918840D01*
X13442603Y-7218840D02*
X13456888Y-7204554D01*
X13485460Y-7161697D01*
X13499746Y-7133126D01*
X13514031Y-7090269D01*
X13528317Y-7018840D01*
X13528317Y-6961697D01*
X13514031Y-6890269D01*
X13499746Y-6847411D01*
X13485460Y-6818840D01*
X13456888Y-6775983D01*
X13442603Y-6761697D01*
X6632360Y-7326740D02*
X6632360Y-7402940D01*
X6594260Y-7364840D02*
X6670460Y-7364840D01*
X7014031Y-7200554D02*
X7042603Y-7200554D01*
X7071174Y-7214840D01*
X7085460Y-7229126D01*
X7099746Y-7257697D01*
X7114031Y-7314840D01*
X7114031Y-7386269D01*
X7099746Y-7443411D01*
X7085460Y-7471983D01*
X7071174Y-7486269D01*
X7042603Y-7500554D01*
X7014031Y-7500554D01*
X6985460Y-7486269D01*
X6971174Y-7471983D01*
X6956888Y-7443411D01*
X6942603Y-7386269D01*
X6942603Y-7314840D01*
X6956888Y-7257697D01*
X6971174Y-7229126D01*
X6985460Y-7214840D01*
X7014031Y-7200554D01*
X7242603Y-7471983D02*
X7256888Y-7486269D01*
X7242603Y-7500554D01*
X7228317Y-7486269D01*
X7242603Y-7471983D01*
X7242603Y-7500554D01*
X7356888Y-7200554D02*
X7556888Y-7200554D01*
X7428317Y-7500554D01*
X7799746Y-7200554D02*
X7742603Y-7200554D01*
X7714031Y-7214840D01*
X7699746Y-7229126D01*
X7671174Y-7271983D01*
X7656888Y-7329126D01*
X7656888Y-7443411D01*
X7671174Y-7471983D01*
X7685460Y-7486269D01*
X7714031Y-7500554D01*
X7771174Y-7500554D01*
X7799746Y-7486269D01*
X7814031Y-7471983D01*
X7828317Y-7443411D01*
X7828317Y-7371983D01*
X7814031Y-7343411D01*
X7799746Y-7329126D01*
X7771174Y-7314840D01*
X7714031Y-7314840D01*
X7685460Y-7329126D01*
X7671174Y-7343411D01*
X7656888Y-7371983D01*
X7956888Y-7500554D02*
X7956888Y-7300554D01*
X7956888Y-7329126D02*
X7971174Y-7314840D01*
X7999746Y-7300554D01*
X8042603Y-7300554D01*
X8071174Y-7314840D01*
X8085460Y-7343411D01*
X8085460Y-7500554D01*
X8085460Y-7343411D02*
X8099746Y-7314840D01*
X8128317Y-7300554D01*
X8171174Y-7300554D01*
X8199746Y-7314840D01*
X8214031Y-7343411D01*
X8214031Y-7500554D01*
X8356888Y-7500554D02*
X8356888Y-7300554D01*
X8356888Y-7329126D02*
X8371174Y-7314840D01*
X8399746Y-7300554D01*
X8442603Y-7300554D01*
X8471174Y-7314840D01*
X8485460Y-7343411D01*
X8485460Y-7500554D01*
X8485460Y-7343411D02*
X8499746Y-7314840D01*
X8528317Y-7300554D01*
X8571174Y-7300554D01*
X8599746Y-7314840D01*
X8614031Y-7343411D01*
X8614031Y-7500554D01*
X9199746Y-7186269D02*
X8942603Y-7571983D01*
X9585460Y-7200554D02*
X9614031Y-7200554D01*
X9642603Y-7214840D01*
X9656888Y-7229126D01*
X9671174Y-7257697D01*
X9685460Y-7314840D01*
X9685460Y-7386269D01*
X9671174Y-7443411D01*
X9656888Y-7471983D01*
X9642603Y-7486269D01*
X9614031Y-7500554D01*
X9585460Y-7500554D01*
X9556888Y-7486269D01*
X9542603Y-7471983D01*
X9528317Y-7443411D01*
X9514031Y-7386269D01*
X9514031Y-7314840D01*
X9528317Y-7257697D01*
X9542603Y-7229126D01*
X9556888Y-7214840D01*
X9585460Y-7200554D01*
X9814031Y-7471983D02*
X9828317Y-7486269D01*
X9814031Y-7500554D01*
X9799746Y-7486269D01*
X9814031Y-7471983D01*
X9814031Y-7500554D01*
X10014031Y-7200554D02*
X10042603Y-7200554D01*
X10071174Y-7214840D01*
X10085460Y-7229126D01*
X10099746Y-7257697D01*
X10114031Y-7314840D01*
X10114031Y-7386269D01*
X10099746Y-7443411D01*
X10085460Y-7471983D01*
X10071174Y-7486269D01*
X10042603Y-7500554D01*
X10014031Y-7500554D01*
X9985460Y-7486269D01*
X9971174Y-7471983D01*
X9956888Y-7443411D01*
X9942603Y-7386269D01*
X9942603Y-7314840D01*
X9956888Y-7257697D01*
X9971174Y-7229126D01*
X9985460Y-7214840D01*
X10014031Y-7200554D01*
X10214031Y-7200554D02*
X10399746Y-7200554D01*
X10299746Y-7314840D01*
X10342603Y-7314840D01*
X10371174Y-7329126D01*
X10385460Y-7343411D01*
X10399746Y-7371983D01*
X10399746Y-7443411D01*
X10385460Y-7471983D01*
X10371174Y-7486269D01*
X10342603Y-7500554D01*
X10256888Y-7500554D01*
X10228317Y-7486269D01*
X10214031Y-7471983D01*
X10585460Y-7200554D02*
X10614031Y-7200554D01*
X10642603Y-7214840D01*
X10656888Y-7229126D01*
X10671174Y-7257697D01*
X10685460Y-7314840D01*
X10685460Y-7386269D01*
X10671174Y-7443411D01*
X10656888Y-7471983D01*
X10642603Y-7486269D01*
X10614031Y-7500554D01*
X10585460Y-7500554D01*
X10556888Y-7486269D01*
X10542603Y-7471983D01*
X10528317Y-7443411D01*
X10514031Y-7386269D01*
X10514031Y-7314840D01*
X10528317Y-7257697D01*
X10542603Y-7229126D01*
X10556888Y-7214840D01*
X10585460Y-7200554D01*
X10799746Y-7200554D02*
X10799746Y-7257697D01*
X10914031Y-7200554D02*
X10914031Y-7257697D01*
X11356888Y-7614840D02*
X11342603Y-7600554D01*
X11314031Y-7557697D01*
X11299746Y-7529126D01*
X11285460Y-7486269D01*
X11271174Y-7414840D01*
X11271174Y-7357697D01*
X11285460Y-7286269D01*
X11299746Y-7243411D01*
X11314031Y-7214840D01*
X11342603Y-7171983D01*
X11356888Y-7157697D01*
X11628317Y-7500554D02*
X11456888Y-7500554D01*
X11542603Y-7500554D02*
X11542603Y-7200554D01*
X11514031Y-7243411D01*
X11485460Y-7271983D01*
X11456888Y-7286269D01*
X11885460Y-7200554D02*
X11828317Y-7200554D01*
X11799746Y-7214840D01*
X11785460Y-7229126D01*
X11756888Y-7271983D01*
X11742603Y-7329126D01*
X11742603Y-7443411D01*
X11756888Y-7471983D01*
X11771174Y-7486269D01*
X11799746Y-7500554D01*
X11856888Y-7500554D01*
X11885460Y-7486269D01*
X11899746Y-7471983D01*
X11914031Y-7443411D01*
X11914031Y-7371983D01*
X11899746Y-7343411D01*
X11885460Y-7329126D01*
X11856888Y-7314840D01*
X11799746Y-7314840D01*
X11771174Y-7329126D01*
X11756888Y-7343411D01*
X11742603Y-7371983D01*
X12271174Y-7500554D02*
X12271174Y-7200554D01*
X12399746Y-7500554D02*
X12399746Y-7343411D01*
X12385460Y-7314840D01*
X12356888Y-7300554D01*
X12314031Y-7300554D01*
X12285460Y-7314840D01*
X12271174Y-7329126D01*
X12585460Y-7500554D02*
X12556888Y-7486269D01*
X12542603Y-7471983D01*
X12528317Y-7443411D01*
X12528317Y-7357697D01*
X12542603Y-7329126D01*
X12556888Y-7314840D01*
X12585460Y-7300554D01*
X12628317Y-7300554D01*
X12656888Y-7314840D01*
X12671174Y-7329126D01*
X12685460Y-7357697D01*
X12685460Y-7443411D01*
X12671174Y-7471983D01*
X12656888Y-7486269D01*
X12628317Y-7500554D01*
X12585460Y-7500554D01*
X12856888Y-7500554D02*
X12828317Y-7486269D01*
X12814031Y-7457697D01*
X12814031Y-7200554D01*
X13085460Y-7486269D02*
X13056888Y-7500554D01*
X12999746Y-7500554D01*
X12971174Y-7486269D01*
X12956888Y-7457697D01*
X12956888Y-7343411D01*
X12971174Y-7314840D01*
X12999746Y-7300554D01*
X13056888Y-7300554D01*
X13085460Y-7314840D01*
X13099746Y-7343411D01*
X13099746Y-7371983D01*
X12956888Y-7400554D01*
X13214031Y-7486269D02*
X13242603Y-7500554D01*
X13299746Y-7500554D01*
X13328317Y-7486269D01*
X13342603Y-7457697D01*
X13342603Y-7443411D01*
X13328317Y-7414840D01*
X13299746Y-7400554D01*
X13256888Y-7400554D01*
X13228317Y-7386269D01*
X13214031Y-7357697D01*
X13214031Y-7343411D01*
X13228317Y-7314840D01*
X13256888Y-7300554D01*
X13299746Y-7300554D01*
X13328317Y-7314840D01*
X13442603Y-7614840D02*
X13456888Y-7600554D01*
X13485460Y-7557697D01*
X13499746Y-7529126D01*
X13514031Y-7486269D01*
X13528317Y-7414840D01*
X13528317Y-7357697D01*
X13514031Y-7286269D01*
X13499746Y-7243411D01*
X13485460Y-7214840D01*
X13456888Y-7171983D01*
X13442603Y-7157697D01*
M02*
