G04 #@! TF.GenerationSoftware,KiCad,Pcbnew,5.1.6-c6e7f7d~87~ubuntu19.10.1*
G04 #@! TF.CreationDate,2020-11-04T01:00:01+01:00*
G04 #@! TF.ProjectId,board_attiny2313a,626f6172-645f-4617-9474-696e79323331,rev?*
G04 #@! TF.SameCoordinates,Original*
G04 #@! TF.FileFunction,Legend,Top*
G04 #@! TF.FilePolarity,Positive*
%FSLAX46Y46*%
G04 Gerber Fmt 4.6, Leading zero omitted, Abs format (unit mm)*
G04 Created by KiCad (PCBNEW 5.1.6-c6e7f7d~87~ubuntu19.10.1) date 2020-11-04 01:00:01*
%MOMM*%
%LPD*%
G01*
G04 APERTURE LIST*
%ADD10C,0.120000*%
%ADD11C,0.150000*%
G04 APERTURE END LIST*
D10*
X72539600Y-50324667D02*
X72539600Y-49982133D01*
X71519600Y-50324667D02*
X71519600Y-49982133D01*
D11*
X82847700Y-56050200D02*
X66847700Y-56050200D01*
X66847700Y-56050200D02*
X66847700Y-36050200D01*
X66847700Y-36050200D02*
X86847700Y-36050200D01*
X86847700Y-36050200D02*
X86847700Y-56050200D01*
X86847700Y-56050200D02*
X82847700Y-56050200D01*
D10*
X69949600Y-47403400D02*
X69949600Y-47603400D01*
X65809600Y-44603400D02*
X65599600Y-44803400D01*
X65809600Y-45903400D02*
X65599600Y-45703400D01*
X67099600Y-44603400D02*
X65809600Y-44603400D01*
X65599600Y-44803400D02*
X65599600Y-45703400D01*
X65809600Y-45903400D02*
X67099600Y-45903400D01*
X67099600Y-43153400D02*
X67099600Y-48853400D01*
X69949600Y-44403400D02*
X69949600Y-46103400D01*
X68899600Y-42553400D02*
X68109600Y-42553400D01*
X68109600Y-49453400D02*
X68899600Y-49453400D01*
D11*
X72774600Y-49925200D02*
X73024600Y-49925200D01*
X72774600Y-42175200D02*
X73109600Y-42175200D01*
X85924600Y-42175200D02*
X85589600Y-42175200D01*
X85924600Y-49925200D02*
X85589600Y-49925200D01*
X72774600Y-49925200D02*
X72774600Y-42175200D01*
X85924600Y-49925200D02*
X85924600Y-42175200D01*
X73024600Y-49925200D02*
X73024600Y-51725200D01*
X71051980Y-50320066D02*
X70575790Y-50653400D01*
X71051980Y-50891495D02*
X70051980Y-50891495D01*
X70051980Y-50510542D01*
X70099600Y-50415304D01*
X70147219Y-50367685D01*
X70242457Y-50320066D01*
X70385314Y-50320066D01*
X70480552Y-50367685D01*
X70528171Y-50415304D01*
X70575790Y-50510542D01*
X70575790Y-50891495D01*
X70051980Y-49415304D02*
X70051980Y-49891495D01*
X70528171Y-49939114D01*
X70480552Y-49891495D01*
X70432933Y-49796257D01*
X70432933Y-49558161D01*
X70480552Y-49462923D01*
X70528171Y-49415304D01*
X70623409Y-49367685D01*
X70861504Y-49367685D01*
X70956742Y-49415304D01*
X71004361Y-49462923D01*
X71051980Y-49558161D01*
X71051980Y-49796257D01*
X71004361Y-49891495D01*
X70956742Y-49939114D01*
X75800080Y-47502580D02*
X75323890Y-47502580D01*
X75323890Y-46502580D01*
X76514366Y-47454961D02*
X76419128Y-47502580D01*
X76228652Y-47502580D01*
X76133414Y-47454961D01*
X76085795Y-47359723D01*
X76085795Y-46978771D01*
X76133414Y-46883533D01*
X76228652Y-46835914D01*
X76419128Y-46835914D01*
X76514366Y-46883533D01*
X76561985Y-46978771D01*
X76561985Y-47074009D01*
X76085795Y-47169247D01*
X77419128Y-47502580D02*
X77419128Y-46502580D01*
X77419128Y-47454961D02*
X77323890Y-47502580D01*
X77133414Y-47502580D01*
X77038176Y-47454961D01*
X76990557Y-47407342D01*
X76942938Y-47312104D01*
X76942938Y-47026390D01*
X76990557Y-46931152D01*
X77038176Y-46883533D01*
X77133414Y-46835914D01*
X77323890Y-46835914D01*
X77419128Y-46883533D01*
X78419128Y-47502580D02*
X77847700Y-47502580D01*
X78133414Y-47502580D02*
X78133414Y-46502580D01*
X78038176Y-46645438D01*
X77942938Y-46740676D01*
X77847700Y-46788295D01*
X72434361Y-47336733D02*
X72481980Y-47193876D01*
X72481980Y-46955780D01*
X72434361Y-46860542D01*
X72386742Y-46812923D01*
X72291504Y-46765304D01*
X72196266Y-46765304D01*
X72101028Y-46812923D01*
X72053409Y-46860542D01*
X72005790Y-46955780D01*
X71958171Y-47146257D01*
X71910552Y-47241495D01*
X71862933Y-47289114D01*
X71767695Y-47336733D01*
X71672457Y-47336733D01*
X71577219Y-47289114D01*
X71529600Y-47241495D01*
X71481980Y-47146257D01*
X71481980Y-46908161D01*
X71529600Y-46765304D01*
X71481980Y-46431971D02*
X72481980Y-46193876D01*
X71767695Y-46003400D01*
X72481980Y-45812923D01*
X71481980Y-45574828D01*
X72481980Y-44670066D02*
X72481980Y-45241495D01*
X72481980Y-44955780D02*
X71481980Y-44955780D01*
X71624838Y-45051019D01*
X71720076Y-45146257D01*
X71767695Y-45241495D01*
X71301980Y-46812104D02*
X72111504Y-46812104D01*
X72206742Y-46764485D01*
X72254361Y-46716866D01*
X72301980Y-46621628D01*
X72301980Y-46431152D01*
X72254361Y-46335914D01*
X72206742Y-46288295D01*
X72111504Y-46240676D01*
X71301980Y-46240676D01*
X72301980Y-45240676D02*
X72301980Y-45812104D01*
X72301980Y-45526390D02*
X71301980Y-45526390D01*
X71444838Y-45621628D01*
X71540076Y-45716866D01*
X71587695Y-45812104D01*
M02*
