G04 #@! TF.GenerationSoftware,KiCad,Pcbnew,5.1.6-c6e7f7d~87~ubuntu19.10.1*
G04 #@! TF.CreationDate,2020-11-04T01:00:01+01:00*
G04 #@! TF.ProjectId,board_attiny2313a,626f6172-645f-4617-9474-696e79323331,rev?*
G04 #@! TF.SameCoordinates,Original*
G04 #@! TF.FileFunction,Soldermask,Bot*
G04 #@! TF.FilePolarity,Negative*
%FSLAX46Y46*%
G04 Gerber Fmt 4.6, Leading zero omitted, Abs format (unit mm)*
G04 Created by KiCad (PCBNEW 5.1.6-c6e7f7d~87~ubuntu19.10.1) date 2020-11-04 01:00:01*
%MOMM*%
%LPD*%
G01*
G04 APERTURE LIST*
%ADD10C,0.100000*%
%ADD11R,3.902000X3.013000*%
%ADD12R,1.202000X1.905000*%
%ADD13C,1.924000*%
%ADD14C,1.300000*%
%ADD15R,1.780000X0.850000*%
%ADD16R,2.500000X1.875000*%
%ADD17R,2.300000X2.400000*%
G04 APERTURE END LIST*
D10*
G36*
X75479600Y-55453400D02*
G01*
X71829600Y-55453400D01*
X71829600Y-54553400D01*
X75479600Y-54553400D01*
X75479600Y-55453400D01*
G37*
X75479600Y-55453400D02*
X71829600Y-55453400D01*
X71829600Y-54553400D01*
X75479600Y-54553400D01*
X75479600Y-55453400D01*
G36*
X84429600Y-55453400D02*
G01*
X81329600Y-55453400D01*
X81329600Y-54553400D01*
X84429600Y-54553400D01*
X84429600Y-55453400D01*
G37*
X84429600Y-55453400D02*
X81329600Y-55453400D01*
X81329600Y-54553400D01*
X84429600Y-54553400D01*
X84429600Y-55453400D01*
G36*
G01*
X84129600Y-44103400D02*
X84129600Y-42403400D01*
G75*
G02*
X84604600Y-41928400I475000J0D01*
G01*
X85554600Y-41928400D01*
G75*
G02*
X86029600Y-42403400I0J-475000D01*
G01*
X86029600Y-44103400D01*
G75*
G02*
X85554600Y-44578400I-475000J0D01*
G01*
X84604600Y-44578400D01*
G75*
G02*
X84129600Y-44103400I0J475000D01*
G01*
G37*
G36*
G01*
X84129600Y-50553400D02*
X84129600Y-48853400D01*
G75*
G02*
X84604600Y-48378400I475000J0D01*
G01*
X85554600Y-48378400D01*
G75*
G02*
X86029600Y-48853400I0J-475000D01*
G01*
X86029600Y-50553400D01*
G75*
G02*
X85554600Y-51028400I-475000J0D01*
G01*
X84604600Y-51028400D01*
G75*
G02*
X84129600Y-50553400I0J475000D01*
G01*
G37*
G36*
G01*
X83117100Y-41928400D02*
X82442100Y-41928400D01*
G75*
G02*
X82104600Y-41590900I0J337500D01*
G01*
X82104600Y-40815900D01*
G75*
G02*
X82442100Y-40478400I337500J0D01*
G01*
X83117100Y-40478400D01*
G75*
G02*
X83454600Y-40815900I0J-337500D01*
G01*
X83454600Y-41590900D01*
G75*
G02*
X83117100Y-41928400I-337500J0D01*
G01*
G37*
G36*
G01*
X83117100Y-43678400D02*
X82442100Y-43678400D01*
G75*
G02*
X82104600Y-43340900I0J337500D01*
G01*
X82104600Y-42565900D01*
G75*
G02*
X82442100Y-42228400I337500J0D01*
G01*
X83117100Y-42228400D01*
G75*
G02*
X83454600Y-42565900I0J-337500D01*
G01*
X83454600Y-43340900D01*
G75*
G02*
X83117100Y-43678400I-337500J0D01*
G01*
G37*
D11*
X79129600Y-45872400D03*
D12*
X77224600Y-48369900D03*
X78494600Y-48369900D03*
X79764600Y-48369900D03*
X81034600Y-48369900D03*
X81034600Y-43374900D03*
X79764600Y-43374900D03*
X78494600Y-43374900D03*
X77224600Y-43374900D03*
D13*
X68097700Y-53050200D03*
X70597700Y-53050200D03*
X73097700Y-53050200D03*
X75597700Y-53050200D03*
X78097700Y-53050200D03*
X80597700Y-53050200D03*
X83097700Y-53050200D03*
X85597700Y-53050200D03*
X85597700Y-39050200D03*
X83097700Y-39050200D03*
X80597700Y-39050200D03*
X78097700Y-39050200D03*
X75597700Y-39050200D03*
X73097700Y-39050200D03*
X70597700Y-39050200D03*
X68097700Y-39050200D03*
D14*
X68499600Y-44503400D03*
X68499600Y-47503400D03*
G36*
G01*
X73154600Y-44740900D02*
X73154600Y-44065900D01*
G75*
G02*
X73492100Y-43728400I337500J0D01*
G01*
X74267100Y-43728400D01*
G75*
G02*
X74604600Y-44065900I0J-337500D01*
G01*
X74604600Y-44740900D01*
G75*
G02*
X74267100Y-45078400I-337500J0D01*
G01*
X73492100Y-45078400D01*
G75*
G02*
X73154600Y-44740900I0J337500D01*
G01*
G37*
G36*
G01*
X74904600Y-44740900D02*
X74904600Y-44065900D01*
G75*
G02*
X75242100Y-43728400I337500J0D01*
G01*
X76017100Y-43728400D01*
G75*
G02*
X76354600Y-44065900I0J-337500D01*
G01*
X76354600Y-44740900D01*
G75*
G02*
X76017100Y-45078400I-337500J0D01*
G01*
X75242100Y-45078400D01*
G75*
G02*
X74904600Y-44740900I0J337500D01*
G01*
G37*
G36*
G01*
X83767100Y-46328400D02*
X83092100Y-46328400D01*
G75*
G02*
X82754600Y-45990900I0J337500D01*
G01*
X82754600Y-45215900D01*
G75*
G02*
X83092100Y-44878400I337500J0D01*
G01*
X83767100Y-44878400D01*
G75*
G02*
X84104600Y-45215900I0J-337500D01*
G01*
X84104600Y-45990900D01*
G75*
G02*
X83767100Y-46328400I-337500J0D01*
G01*
G37*
G36*
G01*
X83767100Y-48078400D02*
X83092100Y-48078400D01*
G75*
G02*
X82754600Y-47740900I0J337500D01*
G01*
X82754600Y-46965900D01*
G75*
G02*
X83092100Y-46628400I337500J0D01*
G01*
X83767100Y-46628400D01*
G75*
G02*
X84104600Y-46965900I0J-337500D01*
G01*
X84104600Y-47740900D01*
G75*
G02*
X83767100Y-48078400I-337500J0D01*
G01*
G37*
G36*
G01*
X82554600Y-54659900D02*
X82554600Y-55334900D01*
G75*
G02*
X82217100Y-55672400I-337500J0D01*
G01*
X81442100Y-55672400D01*
G75*
G02*
X81104600Y-55334900I0J337500D01*
G01*
X81104600Y-54659900D01*
G75*
G02*
X81442100Y-54322400I337500J0D01*
G01*
X82217100Y-54322400D01*
G75*
G02*
X82554600Y-54659900I0J-337500D01*
G01*
G37*
G36*
G01*
X80804600Y-54659900D02*
X80804600Y-55334900D01*
G75*
G02*
X80467100Y-55672400I-337500J0D01*
G01*
X79692100Y-55672400D01*
G75*
G02*
X79354600Y-55334900I0J337500D01*
G01*
X79354600Y-54659900D01*
G75*
G02*
X79692100Y-54322400I337500J0D01*
G01*
X80467100Y-54322400D01*
G75*
G02*
X80804600Y-54659900I0J-337500D01*
G01*
G37*
G36*
G01*
X71329600Y-54665900D02*
X71329600Y-55340900D01*
G75*
G02*
X70992100Y-55678400I-337500J0D01*
G01*
X70217100Y-55678400D01*
G75*
G02*
X69879600Y-55340900I0J337500D01*
G01*
X69879600Y-54665900D01*
G75*
G02*
X70217100Y-54328400I337500J0D01*
G01*
X70992100Y-54328400D01*
G75*
G02*
X71329600Y-54665900I0J-337500D01*
G01*
G37*
G36*
G01*
X73079600Y-54665900D02*
X73079600Y-55340900D01*
G75*
G02*
X72742100Y-55678400I-337500J0D01*
G01*
X71967100Y-55678400D01*
G75*
G02*
X71629600Y-55340900I0J337500D01*
G01*
X71629600Y-54665900D01*
G75*
G02*
X71967100Y-54328400I337500J0D01*
G01*
X72742100Y-54328400D01*
G75*
G02*
X73079600Y-54665900I0J-337500D01*
G01*
G37*
D15*
X70903600Y-47348400D03*
X70903600Y-46698400D03*
X70903600Y-46048400D03*
X70903600Y-45398400D03*
X70903600Y-44748400D03*
D16*
X70543600Y-48510900D03*
X70543600Y-43585900D03*
D17*
X68243600Y-49358400D03*
X68243600Y-42638400D03*
G36*
G01*
X84654600Y-54659900D02*
X84654600Y-55334900D01*
G75*
G02*
X84317100Y-55672400I-337500J0D01*
G01*
X83542100Y-55672400D01*
G75*
G02*
X83204600Y-55334900I0J337500D01*
G01*
X83204600Y-54659900D01*
G75*
G02*
X83542100Y-54322400I337500J0D01*
G01*
X84317100Y-54322400D01*
G75*
G02*
X84654600Y-54659900I0J-337500D01*
G01*
G37*
G36*
G01*
X86404600Y-54659900D02*
X86404600Y-55334900D01*
G75*
G02*
X86067100Y-55672400I-337500J0D01*
G01*
X85292100Y-55672400D01*
G75*
G02*
X84954600Y-55334900I0J337500D01*
G01*
X84954600Y-54659900D01*
G75*
G02*
X85292100Y-54322400I337500J0D01*
G01*
X86067100Y-54322400D01*
G75*
G02*
X86404600Y-54659900I0J-337500D01*
G01*
G37*
G36*
G01*
X77429600Y-54665900D02*
X77429600Y-55340900D01*
G75*
G02*
X77092100Y-55678400I-337500J0D01*
G01*
X76317100Y-55678400D01*
G75*
G02*
X75979600Y-55340900I0J337500D01*
G01*
X75979600Y-54665900D01*
G75*
G02*
X76317100Y-54328400I337500J0D01*
G01*
X77092100Y-54328400D01*
G75*
G02*
X77429600Y-54665900I0J-337500D01*
G01*
G37*
G36*
G01*
X75679600Y-54665900D02*
X75679600Y-55340900D01*
G75*
G02*
X75342100Y-55678400I-337500J0D01*
G01*
X74567100Y-55678400D01*
G75*
G02*
X74229600Y-55340900I0J337500D01*
G01*
X74229600Y-54665900D01*
G75*
G02*
X74567100Y-54328400I337500J0D01*
G01*
X75342100Y-54328400D01*
G75*
G02*
X75679600Y-54665900I0J-337500D01*
G01*
G37*
G36*
G01*
X77254600Y-41840900D02*
X77254600Y-41165900D01*
G75*
G02*
X77592100Y-40828400I337500J0D01*
G01*
X78367100Y-40828400D01*
G75*
G02*
X78704600Y-41165900I0J-337500D01*
G01*
X78704600Y-41840900D01*
G75*
G02*
X78367100Y-42178400I-337500J0D01*
G01*
X77592100Y-42178400D01*
G75*
G02*
X77254600Y-41840900I0J337500D01*
G01*
G37*
G36*
G01*
X79004600Y-41840900D02*
X79004600Y-41165900D01*
G75*
G02*
X79342100Y-40828400I337500J0D01*
G01*
X80117100Y-40828400D01*
G75*
G02*
X80454600Y-41165900I0J-337500D01*
G01*
X80454600Y-41840900D01*
G75*
G02*
X80117100Y-42178400I-337500J0D01*
G01*
X79342100Y-42178400D01*
G75*
G02*
X79004600Y-41840900I0J337500D01*
G01*
G37*
G36*
G01*
X75617100Y-47328400D02*
X74942100Y-47328400D01*
G75*
G02*
X74604600Y-46990900I0J337500D01*
G01*
X74604600Y-46215900D01*
G75*
G02*
X74942100Y-45878400I337500J0D01*
G01*
X75617100Y-45878400D01*
G75*
G02*
X75954600Y-46215900I0J-337500D01*
G01*
X75954600Y-46990900D01*
G75*
G02*
X75617100Y-47328400I-337500J0D01*
G01*
G37*
G36*
G01*
X75617100Y-49078400D02*
X74942100Y-49078400D01*
G75*
G02*
X74604600Y-48740900I0J337500D01*
G01*
X74604600Y-47965900D01*
G75*
G02*
X74942100Y-47628400I337500J0D01*
G01*
X75617100Y-47628400D01*
G75*
G02*
X75954600Y-47965900I0J-337500D01*
G01*
X75954600Y-48740900D01*
G75*
G02*
X75617100Y-49078400I-337500J0D01*
G01*
G37*
M02*
