G04 #@! TF.GenerationSoftware,KiCad,Pcbnew,5.1.6-c6e7f7d~87~ubuntu19.10.1*
G04 #@! TF.CreationDate,2020-11-06T01:06:48+01:00*
G04 #@! TF.ProjectId,board_attiny48_88,626f6172-645f-4617-9474-696e7934385f,rev?*
G04 #@! TF.SameCoordinates,Original*
G04 #@! TF.FileFunction,Copper,L1,Top*
G04 #@! TF.FilePolarity,Positive*
%FSLAX46Y46*%
G04 Gerber Fmt 4.6, Leading zero omitted, Abs format (unit mm)*
G04 Created by KiCad (PCBNEW 5.1.6-c6e7f7d~87~ubuntu19.10.1) date 2020-11-06 01:06:48*
%MOMM*%
%LPD*%
G01*
G04 APERTURE LIST*
G04 #@! TA.AperFunction,SMDPad,CuDef*
%ADD10C,0.100000*%
G04 #@! TD*
G04 #@! TA.AperFunction,ComponentPad*
%ADD11C,1.524000*%
G04 #@! TD*
G04 #@! TA.AperFunction,SMDPad,CuDef*
%ADD12R,0.800000X1.000000*%
G04 #@! TD*
G04 #@! TA.AperFunction,SMDPad,CuDef*
%ADD13R,1.500000X0.700000*%
G04 #@! TD*
G04 #@! TA.AperFunction,ViaPad*
%ADD14C,0.800000*%
G04 #@! TD*
G04 #@! TA.AperFunction,ViaPad*
%ADD15C,0.600000*%
G04 #@! TD*
G04 #@! TA.AperFunction,Conductor*
%ADD16C,0.250000*%
G04 #@! TD*
G04 #@! TA.AperFunction,Conductor*
%ADD17C,0.350000*%
G04 #@! TD*
G04 APERTURE END LIST*
G04 #@! TA.AperFunction,SMDPad,CuDef*
G36*
G01*
X80355775Y-45213711D02*
X80444163Y-45302099D01*
G75*
G02*
X80444163Y-45390487I-44194J-44194D01*
G01*
X79913833Y-45920817D01*
G75*
G02*
X79825445Y-45920817I-44194J44194D01*
G01*
X79737057Y-45832429D01*
G75*
G02*
X79737057Y-45744041I44194J44194D01*
G01*
X80267387Y-45213711D01*
G75*
G02*
X80355775Y-45213711I44194J-44194D01*
G01*
G37*
G04 #@! TD.AperFunction*
G04 #@! TA.AperFunction,SMDPad,CuDef*
G36*
G01*
X80002221Y-44860158D02*
X80090609Y-44948546D01*
G75*
G02*
X80090609Y-45036934I-44194J-44194D01*
G01*
X79560279Y-45567264D01*
G75*
G02*
X79471891Y-45567264I-44194J44194D01*
G01*
X79383503Y-45478876D01*
G75*
G02*
X79383503Y-45390488I44194J44194D01*
G01*
X79913833Y-44860158D01*
G75*
G02*
X80002221Y-44860158I44194J-44194D01*
G01*
G37*
G04 #@! TD.AperFunction*
G04 #@! TA.AperFunction,SMDPad,CuDef*
G36*
G01*
X79648668Y-44506604D02*
X79737056Y-44594992D01*
G75*
G02*
X79737056Y-44683380I-44194J-44194D01*
G01*
X79206726Y-45213710D01*
G75*
G02*
X79118338Y-45213710I-44194J44194D01*
G01*
X79029950Y-45125322D01*
G75*
G02*
X79029950Y-45036934I44194J44194D01*
G01*
X79560280Y-44506604D01*
G75*
G02*
X79648668Y-44506604I44194J-44194D01*
G01*
G37*
G04 #@! TD.AperFunction*
G04 #@! TA.AperFunction,SMDPad,CuDef*
G36*
G01*
X79295114Y-44153051D02*
X79383502Y-44241439D01*
G75*
G02*
X79383502Y-44329827I-44194J-44194D01*
G01*
X78853172Y-44860157D01*
G75*
G02*
X78764784Y-44860157I-44194J44194D01*
G01*
X78676396Y-44771769D01*
G75*
G02*
X78676396Y-44683381I44194J44194D01*
G01*
X79206726Y-44153051D01*
G75*
G02*
X79295114Y-44153051I44194J-44194D01*
G01*
G37*
G04 #@! TD.AperFunction*
G04 #@! TA.AperFunction,SMDPad,CuDef*
G36*
G01*
X78941561Y-43799498D02*
X79029949Y-43887886D01*
G75*
G02*
X79029949Y-43976274I-44194J-44194D01*
G01*
X78499619Y-44506604D01*
G75*
G02*
X78411231Y-44506604I-44194J44194D01*
G01*
X78322843Y-44418216D01*
G75*
G02*
X78322843Y-44329828I44194J44194D01*
G01*
X78853173Y-43799498D01*
G75*
G02*
X78941561Y-43799498I44194J-44194D01*
G01*
G37*
G04 #@! TD.AperFunction*
G04 #@! TA.AperFunction,SMDPad,CuDef*
G36*
G01*
X78588008Y-43445944D02*
X78676396Y-43534332D01*
G75*
G02*
X78676396Y-43622720I-44194J-44194D01*
G01*
X78146066Y-44153050D01*
G75*
G02*
X78057678Y-44153050I-44194J44194D01*
G01*
X77969290Y-44064662D01*
G75*
G02*
X77969290Y-43976274I44194J44194D01*
G01*
X78499620Y-43445944D01*
G75*
G02*
X78588008Y-43445944I44194J-44194D01*
G01*
G37*
G04 #@! TD.AperFunction*
G04 #@! TA.AperFunction,SMDPad,CuDef*
G36*
G01*
X78234454Y-43092391D02*
X78322842Y-43180779D01*
G75*
G02*
X78322842Y-43269167I-44194J-44194D01*
G01*
X77792512Y-43799497D01*
G75*
G02*
X77704124Y-43799497I-44194J44194D01*
G01*
X77615736Y-43711109D01*
G75*
G02*
X77615736Y-43622721I44194J44194D01*
G01*
X78146066Y-43092391D01*
G75*
G02*
X78234454Y-43092391I44194J-44194D01*
G01*
G37*
G04 #@! TD.AperFunction*
G04 #@! TA.AperFunction,SMDPad,CuDef*
G36*
G01*
X77880901Y-42738837D02*
X77969289Y-42827225D01*
G75*
G02*
X77969289Y-42915613I-44194J-44194D01*
G01*
X77438959Y-43445943D01*
G75*
G02*
X77350571Y-43445943I-44194J44194D01*
G01*
X77262183Y-43357555D01*
G75*
G02*
X77262183Y-43269167I44194J44194D01*
G01*
X77792513Y-42738837D01*
G75*
G02*
X77880901Y-42738837I44194J-44194D01*
G01*
G37*
G04 #@! TD.AperFunction*
G04 #@! TA.AperFunction,SMDPad,CuDef*
G36*
G01*
X76466687Y-42738837D02*
X76997017Y-43269167D01*
G75*
G02*
X76997017Y-43357555I-44194J-44194D01*
G01*
X76908629Y-43445943D01*
G75*
G02*
X76820241Y-43445943I-44194J44194D01*
G01*
X76289911Y-42915613D01*
G75*
G02*
X76289911Y-42827225I44194J44194D01*
G01*
X76378299Y-42738837D01*
G75*
G02*
X76466687Y-42738837I44194J-44194D01*
G01*
G37*
G04 #@! TD.AperFunction*
G04 #@! TA.AperFunction,SMDPad,CuDef*
G36*
G01*
X76113134Y-43092391D02*
X76643464Y-43622721D01*
G75*
G02*
X76643464Y-43711109I-44194J-44194D01*
G01*
X76555076Y-43799497D01*
G75*
G02*
X76466688Y-43799497I-44194J44194D01*
G01*
X75936358Y-43269167D01*
G75*
G02*
X75936358Y-43180779I44194J44194D01*
G01*
X76024746Y-43092391D01*
G75*
G02*
X76113134Y-43092391I44194J-44194D01*
G01*
G37*
G04 #@! TD.AperFunction*
G04 #@! TA.AperFunction,SMDPad,CuDef*
G36*
G01*
X75759580Y-43445944D02*
X76289910Y-43976274D01*
G75*
G02*
X76289910Y-44064662I-44194J-44194D01*
G01*
X76201522Y-44153050D01*
G75*
G02*
X76113134Y-44153050I-44194J44194D01*
G01*
X75582804Y-43622720D01*
G75*
G02*
X75582804Y-43534332I44194J44194D01*
G01*
X75671192Y-43445944D01*
G75*
G02*
X75759580Y-43445944I44194J-44194D01*
G01*
G37*
G04 #@! TD.AperFunction*
G04 #@! TA.AperFunction,SMDPad,CuDef*
G36*
G01*
X75406027Y-43799498D02*
X75936357Y-44329828D01*
G75*
G02*
X75936357Y-44418216I-44194J-44194D01*
G01*
X75847969Y-44506604D01*
G75*
G02*
X75759581Y-44506604I-44194J44194D01*
G01*
X75229251Y-43976274D01*
G75*
G02*
X75229251Y-43887886I44194J44194D01*
G01*
X75317639Y-43799498D01*
G75*
G02*
X75406027Y-43799498I44194J-44194D01*
G01*
G37*
G04 #@! TD.AperFunction*
G04 #@! TA.AperFunction,SMDPad,CuDef*
G36*
G01*
X75052474Y-44153051D02*
X75582804Y-44683381D01*
G75*
G02*
X75582804Y-44771769I-44194J-44194D01*
G01*
X75494416Y-44860157D01*
G75*
G02*
X75406028Y-44860157I-44194J44194D01*
G01*
X74875698Y-44329827D01*
G75*
G02*
X74875698Y-44241439I44194J44194D01*
G01*
X74964086Y-44153051D01*
G75*
G02*
X75052474Y-44153051I44194J-44194D01*
G01*
G37*
G04 #@! TD.AperFunction*
G04 #@! TA.AperFunction,SMDPad,CuDef*
G36*
G01*
X74698920Y-44506604D02*
X75229250Y-45036934D01*
G75*
G02*
X75229250Y-45125322I-44194J-44194D01*
G01*
X75140862Y-45213710D01*
G75*
G02*
X75052474Y-45213710I-44194J44194D01*
G01*
X74522144Y-44683380D01*
G75*
G02*
X74522144Y-44594992I44194J44194D01*
G01*
X74610532Y-44506604D01*
G75*
G02*
X74698920Y-44506604I44194J-44194D01*
G01*
G37*
G04 #@! TD.AperFunction*
G04 #@! TA.AperFunction,SMDPad,CuDef*
G36*
G01*
X74345367Y-44860158D02*
X74875697Y-45390488D01*
G75*
G02*
X74875697Y-45478876I-44194J-44194D01*
G01*
X74787309Y-45567264D01*
G75*
G02*
X74698921Y-45567264I-44194J44194D01*
G01*
X74168591Y-45036934D01*
G75*
G02*
X74168591Y-44948546I44194J44194D01*
G01*
X74256979Y-44860158D01*
G75*
G02*
X74345367Y-44860158I44194J-44194D01*
G01*
G37*
G04 #@! TD.AperFunction*
G04 #@! TA.AperFunction,SMDPad,CuDef*
G36*
G01*
X73991813Y-45213711D02*
X74522143Y-45744041D01*
G75*
G02*
X74522143Y-45832429I-44194J-44194D01*
G01*
X74433755Y-45920817D01*
G75*
G02*
X74345367Y-45920817I-44194J44194D01*
G01*
X73815037Y-45390487D01*
G75*
G02*
X73815037Y-45302099I44194J44194D01*
G01*
X73903425Y-45213711D01*
G75*
G02*
X73991813Y-45213711I44194J-44194D01*
G01*
G37*
G04 #@! TD.AperFunction*
G04 #@! TA.AperFunction,SMDPad,CuDef*
G36*
G01*
X74433755Y-46185983D02*
X74522143Y-46274371D01*
G75*
G02*
X74522143Y-46362759I-44194J-44194D01*
G01*
X73991813Y-46893089D01*
G75*
G02*
X73903425Y-46893089I-44194J44194D01*
G01*
X73815037Y-46804701D01*
G75*
G02*
X73815037Y-46716313I44194J44194D01*
G01*
X74345367Y-46185983D01*
G75*
G02*
X74433755Y-46185983I44194J-44194D01*
G01*
G37*
G04 #@! TD.AperFunction*
G04 #@! TA.AperFunction,SMDPad,CuDef*
G36*
G01*
X74787309Y-46539536D02*
X74875697Y-46627924D01*
G75*
G02*
X74875697Y-46716312I-44194J-44194D01*
G01*
X74345367Y-47246642D01*
G75*
G02*
X74256979Y-47246642I-44194J44194D01*
G01*
X74168591Y-47158254D01*
G75*
G02*
X74168591Y-47069866I44194J44194D01*
G01*
X74698921Y-46539536D01*
G75*
G02*
X74787309Y-46539536I44194J-44194D01*
G01*
G37*
G04 #@! TD.AperFunction*
G04 #@! TA.AperFunction,SMDPad,CuDef*
G36*
G01*
X75140862Y-46893090D02*
X75229250Y-46981478D01*
G75*
G02*
X75229250Y-47069866I-44194J-44194D01*
G01*
X74698920Y-47600196D01*
G75*
G02*
X74610532Y-47600196I-44194J44194D01*
G01*
X74522144Y-47511808D01*
G75*
G02*
X74522144Y-47423420I44194J44194D01*
G01*
X75052474Y-46893090D01*
G75*
G02*
X75140862Y-46893090I44194J-44194D01*
G01*
G37*
G04 #@! TD.AperFunction*
G04 #@! TA.AperFunction,SMDPad,CuDef*
G36*
G01*
X75494416Y-47246643D02*
X75582804Y-47335031D01*
G75*
G02*
X75582804Y-47423419I-44194J-44194D01*
G01*
X75052474Y-47953749D01*
G75*
G02*
X74964086Y-47953749I-44194J44194D01*
G01*
X74875698Y-47865361D01*
G75*
G02*
X74875698Y-47776973I44194J44194D01*
G01*
X75406028Y-47246643D01*
G75*
G02*
X75494416Y-47246643I44194J-44194D01*
G01*
G37*
G04 #@! TD.AperFunction*
G04 #@! TA.AperFunction,SMDPad,CuDef*
G36*
G01*
X75847969Y-47600196D02*
X75936357Y-47688584D01*
G75*
G02*
X75936357Y-47776972I-44194J-44194D01*
G01*
X75406027Y-48307302D01*
G75*
G02*
X75317639Y-48307302I-44194J44194D01*
G01*
X75229251Y-48218914D01*
G75*
G02*
X75229251Y-48130526I44194J44194D01*
G01*
X75759581Y-47600196D01*
G75*
G02*
X75847969Y-47600196I44194J-44194D01*
G01*
G37*
G04 #@! TD.AperFunction*
G04 #@! TA.AperFunction,SMDPad,CuDef*
G36*
G01*
X76201522Y-47953750D02*
X76289910Y-48042138D01*
G75*
G02*
X76289910Y-48130526I-44194J-44194D01*
G01*
X75759580Y-48660856D01*
G75*
G02*
X75671192Y-48660856I-44194J44194D01*
G01*
X75582804Y-48572468D01*
G75*
G02*
X75582804Y-48484080I44194J44194D01*
G01*
X76113134Y-47953750D01*
G75*
G02*
X76201522Y-47953750I44194J-44194D01*
G01*
G37*
G04 #@! TD.AperFunction*
G04 #@! TA.AperFunction,SMDPad,CuDef*
G36*
G01*
X76555076Y-48307303D02*
X76643464Y-48395691D01*
G75*
G02*
X76643464Y-48484079I-44194J-44194D01*
G01*
X76113134Y-49014409D01*
G75*
G02*
X76024746Y-49014409I-44194J44194D01*
G01*
X75936358Y-48926021D01*
G75*
G02*
X75936358Y-48837633I44194J44194D01*
G01*
X76466688Y-48307303D01*
G75*
G02*
X76555076Y-48307303I44194J-44194D01*
G01*
G37*
G04 #@! TD.AperFunction*
G04 #@! TA.AperFunction,SMDPad,CuDef*
G36*
G01*
X76908629Y-48660857D02*
X76997017Y-48749245D01*
G75*
G02*
X76997017Y-48837633I-44194J-44194D01*
G01*
X76466687Y-49367963D01*
G75*
G02*
X76378299Y-49367963I-44194J44194D01*
G01*
X76289911Y-49279575D01*
G75*
G02*
X76289911Y-49191187I44194J44194D01*
G01*
X76820241Y-48660857D01*
G75*
G02*
X76908629Y-48660857I44194J-44194D01*
G01*
G37*
G04 #@! TD.AperFunction*
G04 #@! TA.AperFunction,SMDPad,CuDef*
G36*
G01*
X77438959Y-48660857D02*
X77969289Y-49191187D01*
G75*
G02*
X77969289Y-49279575I-44194J-44194D01*
G01*
X77880901Y-49367963D01*
G75*
G02*
X77792513Y-49367963I-44194J44194D01*
G01*
X77262183Y-48837633D01*
G75*
G02*
X77262183Y-48749245I44194J44194D01*
G01*
X77350571Y-48660857D01*
G75*
G02*
X77438959Y-48660857I44194J-44194D01*
G01*
G37*
G04 #@! TD.AperFunction*
G04 #@! TA.AperFunction,SMDPad,CuDef*
G36*
G01*
X77792512Y-48307303D02*
X78322842Y-48837633D01*
G75*
G02*
X78322842Y-48926021I-44194J-44194D01*
G01*
X78234454Y-49014409D01*
G75*
G02*
X78146066Y-49014409I-44194J44194D01*
G01*
X77615736Y-48484079D01*
G75*
G02*
X77615736Y-48395691I44194J44194D01*
G01*
X77704124Y-48307303D01*
G75*
G02*
X77792512Y-48307303I44194J-44194D01*
G01*
G37*
G04 #@! TD.AperFunction*
G04 #@! TA.AperFunction,SMDPad,CuDef*
G36*
G01*
X78146066Y-47953750D02*
X78676396Y-48484080D01*
G75*
G02*
X78676396Y-48572468I-44194J-44194D01*
G01*
X78588008Y-48660856D01*
G75*
G02*
X78499620Y-48660856I-44194J44194D01*
G01*
X77969290Y-48130526D01*
G75*
G02*
X77969290Y-48042138I44194J44194D01*
G01*
X78057678Y-47953750D01*
G75*
G02*
X78146066Y-47953750I44194J-44194D01*
G01*
G37*
G04 #@! TD.AperFunction*
G04 #@! TA.AperFunction,SMDPad,CuDef*
G36*
G01*
X78499619Y-47600196D02*
X79029949Y-48130526D01*
G75*
G02*
X79029949Y-48218914I-44194J-44194D01*
G01*
X78941561Y-48307302D01*
G75*
G02*
X78853173Y-48307302I-44194J44194D01*
G01*
X78322843Y-47776972D01*
G75*
G02*
X78322843Y-47688584I44194J44194D01*
G01*
X78411231Y-47600196D01*
G75*
G02*
X78499619Y-47600196I44194J-44194D01*
G01*
G37*
G04 #@! TD.AperFunction*
G04 #@! TA.AperFunction,SMDPad,CuDef*
G36*
G01*
X78853172Y-47246643D02*
X79383502Y-47776973D01*
G75*
G02*
X79383502Y-47865361I-44194J-44194D01*
G01*
X79295114Y-47953749D01*
G75*
G02*
X79206726Y-47953749I-44194J44194D01*
G01*
X78676396Y-47423419D01*
G75*
G02*
X78676396Y-47335031I44194J44194D01*
G01*
X78764784Y-47246643D01*
G75*
G02*
X78853172Y-47246643I44194J-44194D01*
G01*
G37*
G04 #@! TD.AperFunction*
G04 #@! TA.AperFunction,SMDPad,CuDef*
G36*
G01*
X79206726Y-46893090D02*
X79737056Y-47423420D01*
G75*
G02*
X79737056Y-47511808I-44194J-44194D01*
G01*
X79648668Y-47600196D01*
G75*
G02*
X79560280Y-47600196I-44194J44194D01*
G01*
X79029950Y-47069866D01*
G75*
G02*
X79029950Y-46981478I44194J44194D01*
G01*
X79118338Y-46893090D01*
G75*
G02*
X79206726Y-46893090I44194J-44194D01*
G01*
G37*
G04 #@! TD.AperFunction*
G04 #@! TA.AperFunction,SMDPad,CuDef*
G36*
G01*
X79560279Y-46539536D02*
X80090609Y-47069866D01*
G75*
G02*
X80090609Y-47158254I-44194J-44194D01*
G01*
X80002221Y-47246642D01*
G75*
G02*
X79913833Y-47246642I-44194J44194D01*
G01*
X79383503Y-46716312D01*
G75*
G02*
X79383503Y-46627924I44194J44194D01*
G01*
X79471891Y-46539536D01*
G75*
G02*
X79560279Y-46539536I44194J-44194D01*
G01*
G37*
G04 #@! TD.AperFunction*
G04 #@! TA.AperFunction,SMDPad,CuDef*
G36*
G01*
X79913833Y-46185983D02*
X80444163Y-46716313D01*
G75*
G02*
X80444163Y-46804701I-44194J-44194D01*
G01*
X80355775Y-46893089D01*
G75*
G02*
X80267387Y-46893089I-44194J44194D01*
G01*
X79737057Y-46362759D01*
G75*
G02*
X79737057Y-46274371I44194J44194D01*
G01*
X79825445Y-46185983D01*
G75*
G02*
X79913833Y-46185983I44194J-44194D01*
G01*
G37*
G04 #@! TD.AperFunction*
G04 #@! TA.AperFunction,SMDPad,CuDef*
D10*
G36*
X77129600Y-43861369D02*
G01*
X79321631Y-46053400D01*
X77129600Y-48245431D01*
X74937569Y-46053400D01*
X77129600Y-43861369D01*
G37*
G04 #@! TD.AperFunction*
G04 #@! TA.AperFunction,SMDPad,CuDef*
G36*
G01*
X80488871Y-48880005D02*
X80152995Y-48544129D01*
G75*
G02*
X80152995Y-48208253I167938J167938D01*
G01*
X80559581Y-47801667D01*
G75*
G02*
X80895457Y-47801667I167938J-167938D01*
G01*
X81231333Y-48137543D01*
G75*
G02*
X81231333Y-48473419I-167938J-167938D01*
G01*
X80824747Y-48880005D01*
G75*
G02*
X80488871Y-48880005I-167938J167938D01*
G01*
G37*
G04 #@! TD.AperFunction*
G04 #@! TA.AperFunction,SMDPad,CuDef*
G36*
G01*
X81726307Y-47642569D02*
X81390431Y-47306693D01*
G75*
G02*
X81390431Y-46970817I167938J167938D01*
G01*
X81797017Y-46564231D01*
G75*
G02*
X82132893Y-46564231I167938J-167938D01*
G01*
X82468769Y-46900107D01*
G75*
G02*
X82468769Y-47235983I-167938J-167938D01*
G01*
X82062183Y-47642569D01*
G75*
G02*
X81726307Y-47642569I-167938J167938D01*
G01*
G37*
G04 #@! TD.AperFunction*
D11*
X68097700Y-39050200D03*
X70597700Y-39050200D03*
X73097700Y-39050200D03*
X75597700Y-39050200D03*
X78097700Y-39050200D03*
X80597700Y-39050200D03*
X83097700Y-39050200D03*
X85597700Y-39050200D03*
X85597700Y-53050200D03*
X83097700Y-53050200D03*
X80597700Y-53050200D03*
X78097700Y-53050200D03*
X75597700Y-53050200D03*
X73097700Y-53050200D03*
X70597700Y-53050200D03*
X68097700Y-53050200D03*
D12*
X84199600Y-49703400D03*
X84199600Y-42403400D03*
X86409600Y-42403400D03*
X86409600Y-49703400D03*
D13*
X83549600Y-43803400D03*
X83549600Y-45303400D03*
X83549600Y-48303400D03*
G04 #@! TA.AperFunction,SMDPad,CuDef*
G36*
G01*
X82087487Y-44775411D02*
X81751611Y-45111287D01*
G75*
G02*
X81415735Y-45111287I-167938J167938D01*
G01*
X81009149Y-44704701D01*
G75*
G02*
X81009149Y-44368825I167938J167938D01*
G01*
X81345025Y-44032949D01*
G75*
G02*
X81680901Y-44032949I167938J-167938D01*
G01*
X82087487Y-44439535D01*
G75*
G02*
X82087487Y-44775411I-167938J-167938D01*
G01*
G37*
G04 #@! TD.AperFunction*
G04 #@! TA.AperFunction,SMDPad,CuDef*
G36*
G01*
X80850051Y-43537975D02*
X80514175Y-43873851D01*
G75*
G02*
X80178299Y-43873851I-167938J167938D01*
G01*
X79771713Y-43467265D01*
G75*
G02*
X79771713Y-43131389I167938J167938D01*
G01*
X80107589Y-42795513D01*
G75*
G02*
X80443465Y-42795513I167938J-167938D01*
G01*
X80850051Y-43202099D01*
G75*
G02*
X80850051Y-43537975I-167938J-167938D01*
G01*
G37*
G04 #@! TD.AperFunction*
D14*
X75828094Y-45878400D03*
X77779600Y-45203400D03*
X77779600Y-46653400D03*
X68579600Y-55003400D03*
X78429600Y-55003400D03*
X85279600Y-51153400D03*
D15*
X76779600Y-53953400D03*
X76879582Y-50103400D03*
D14*
X81629600Y-50553400D03*
X73079604Y-49203400D03*
D16*
X73088500Y-53059400D02*
X73097700Y-53050200D01*
X85570000Y-39077900D02*
X85597700Y-39050200D01*
X77129600Y-46406953D02*
X77129600Y-46053400D01*
X75582804Y-47953749D02*
X77129600Y-46406953D01*
X77129600Y-45699847D02*
X77129600Y-46053400D01*
X78676396Y-44153051D02*
X77129600Y-45699847D01*
X79494765Y-43334682D02*
X80310882Y-43334682D01*
X78676396Y-44153051D02*
X79494765Y-43334682D01*
D17*
X76954600Y-45878400D02*
X77129600Y-46053400D01*
X75828094Y-45878400D02*
X76954600Y-45878400D01*
D16*
X77779600Y-45403400D02*
X77779600Y-45203400D01*
X77129600Y-46053400D02*
X77779600Y-45403400D01*
X77729600Y-46653400D02*
X77779600Y-46653400D01*
X77129600Y-46053400D02*
X77729600Y-46653400D01*
X68579600Y-55003400D02*
X78429600Y-55003400D01*
X83549600Y-48303400D02*
X84679600Y-48303400D01*
X85279600Y-48903400D02*
X85279600Y-51153400D01*
X84679600Y-48303400D02*
X85279600Y-48903400D01*
X76779600Y-53953400D02*
X76779600Y-50203382D01*
X76779600Y-50203382D02*
X76879582Y-50103400D01*
X82279600Y-45303400D02*
X81548318Y-44572118D01*
X83549600Y-45303400D02*
X82279600Y-45303400D01*
X80348318Y-44572118D02*
X81548318Y-44572118D01*
X79479600Y-44053400D02*
X79829600Y-44053400D01*
X79029949Y-44503051D02*
X79479600Y-44053400D01*
X79829600Y-44053400D02*
X80348318Y-44572118D01*
X79029949Y-44506604D02*
X79029949Y-44503051D01*
X81929600Y-47103400D02*
X82279600Y-47103400D01*
X82279600Y-45303400D02*
X82279600Y-47103400D01*
X82279600Y-49903400D02*
X81929600Y-50253400D01*
X82279600Y-47103400D02*
X82279600Y-49903400D01*
X81929600Y-50253400D02*
X81629600Y-50553400D01*
X73079604Y-48335629D02*
X73079604Y-49203400D01*
X74522144Y-46893089D02*
X73079604Y-48335629D01*
X79770589Y-48340836D02*
X80692164Y-48340836D01*
X79029949Y-47600196D02*
X79770589Y-48340836D01*
X73097700Y-51853067D02*
X73097700Y-53050200D01*
X76289911Y-48660856D02*
X73097700Y-51853067D01*
X76643464Y-49014410D02*
X76643464Y-49039536D01*
X75597700Y-50085300D02*
X75597700Y-53050200D01*
X76643464Y-49039536D02*
X75597700Y-50085300D01*
X78079600Y-53032100D02*
X78097700Y-53050200D01*
X78079600Y-49478274D02*
X78079600Y-53032100D01*
X77615736Y-49014410D02*
X78079600Y-49478274D01*
X80576400Y-53050200D02*
X80597700Y-53050200D01*
X78579600Y-51053400D02*
X80576400Y-53050200D01*
X78579600Y-49253400D02*
X78579600Y-51053400D01*
X77987056Y-48660856D02*
X78579600Y-49253400D01*
X77969289Y-48660856D02*
X77987056Y-48660856D01*
X83076400Y-53050200D02*
X83097700Y-53050200D01*
X81779600Y-51753400D02*
X83076400Y-53050200D01*
X80229600Y-51753400D02*
X81779600Y-51753400D01*
X79029610Y-50553410D02*
X80229600Y-51753400D01*
X79029610Y-49067000D02*
X79029610Y-50553410D01*
X78322843Y-48360233D02*
X79029610Y-49067000D01*
X78322843Y-48307303D02*
X78322843Y-48360233D01*
X85597700Y-53021500D02*
X85597700Y-53050200D01*
X83879590Y-51303390D02*
X85597700Y-53021500D01*
X80679590Y-51303390D02*
X83879590Y-51303390D01*
X79479620Y-48880600D02*
X79479620Y-50103420D01*
X79019712Y-48420692D02*
X79479620Y-48880600D01*
X79479620Y-50103420D02*
X80679590Y-51303390D01*
X79019712Y-48367762D02*
X79019712Y-48420692D01*
X78676396Y-48024446D02*
X79019712Y-48367762D01*
X78676396Y-47953749D02*
X78676396Y-48024446D01*
X82594500Y-42053400D02*
X85597700Y-39050200D01*
X80068940Y-42053400D02*
X82594500Y-42053400D01*
X78322843Y-43799497D02*
X80068940Y-42053400D01*
X83097700Y-40285300D02*
X83097700Y-39050200D01*
X81947357Y-41435643D02*
X83097700Y-40285300D01*
X79979590Y-41435643D02*
X81947357Y-41435643D01*
X77969289Y-43445944D02*
X79979590Y-41435643D01*
X80579600Y-39068300D02*
X80597700Y-39050200D01*
X80579600Y-40103400D02*
X80579600Y-39068300D01*
X77615736Y-43067264D02*
X80579600Y-40103400D01*
X77615736Y-43092390D02*
X77615736Y-43067264D01*
X73929600Y-39882100D02*
X73097700Y-39050200D01*
X75929094Y-43799497D02*
X73929600Y-41800003D01*
X73929600Y-41800003D02*
X73929600Y-39882100D01*
X75936357Y-43799497D02*
X75929094Y-43799497D01*
X76289911Y-43445944D02*
X76272144Y-43445944D01*
X75597700Y-42771500D02*
X75597700Y-39050200D01*
X76272144Y-43445944D02*
X75597700Y-42771500D01*
X76229600Y-42053400D02*
X78097700Y-40185300D01*
X78097700Y-40185300D02*
X78097700Y-39050200D01*
X76229600Y-42703400D02*
X76229600Y-42053400D01*
X76618590Y-43092390D02*
X76229600Y-42703400D01*
X76643464Y-43092390D02*
X76618590Y-43092390D01*
X71944500Y-51703400D02*
X70597700Y-53050200D01*
X72540260Y-51703400D02*
X71944500Y-51703400D01*
X75936357Y-48307303D02*
X72540260Y-51703400D01*
X68097700Y-51685300D02*
X68097700Y-53050200D01*
X72429600Y-51103400D02*
X68679600Y-51103400D01*
X74779600Y-48753400D02*
X72429600Y-51103400D01*
X68679600Y-51103400D02*
X68097700Y-51685300D01*
X74779600Y-48049847D02*
X74779600Y-48753400D01*
X75229251Y-47600196D02*
X74779600Y-48049847D01*
X75229251Y-44506604D02*
X71726047Y-41003400D01*
X71726047Y-41003400D02*
X68679600Y-41003400D01*
X68097700Y-40421500D02*
X68097700Y-39050200D01*
X68679600Y-41003400D02*
X68097700Y-40421500D01*
X70597700Y-39171500D02*
X70597700Y-39050200D01*
X75579251Y-44153051D02*
X70597700Y-39171500D01*
X75582804Y-44153051D02*
X75579251Y-44153051D01*
M02*
