M48
; DRILL file {KiCad 5.1.6-c6e7f7d~87~ubuntu19.10.1} date Fri Nov  6 01:06:04 2020
; FORMAT={-:-/ absolute / metric / decimal}
; #@! TF.CreationDate,2020-11-06T01:06:04+01:00
; #@! TF.GenerationSoftware,Kicad,Pcbnew,5.1.6-c6e7f7d~87~ubuntu19.10.1
; #@! TF.FileFunction,Plated,1,2,PTH
FMAT,2
METRIC
T1C0.400
T2C0.500
T3C0.762
%
G90
G05
T1
X76.78Y-53.953
X76.88Y-50.103
T2
X68.58Y-55.003
X73.08Y-49.203
X75.828Y-45.878
X77.78Y-45.203
X77.78Y-46.653
X78.43Y-55.003
X81.63Y-50.553
X85.28Y-51.153
T3
X68.098Y-39.05
X68.098Y-53.05
X70.598Y-39.05
X70.598Y-53.05
X73.098Y-39.05
X73.098Y-53.05
X75.598Y-39.05
X75.598Y-53.05
X78.098Y-39.05
X78.098Y-53.05
X80.598Y-39.05
X80.598Y-53.05
X83.098Y-39.05
X83.098Y-53.05
X85.598Y-39.05
X85.598Y-53.05
T0
M30
