G04 #@! TF.GenerationSoftware,KiCad,Pcbnew,5.1.6-c6e7f7d~87~ubuntu19.10.1*
G04 #@! TF.CreationDate,2020-11-06T01:06:48+01:00*
G04 #@! TF.ProjectId,board_attiny48_88,626f6172-645f-4617-9474-696e7934385f,rev?*
G04 #@! TF.SameCoordinates,Original*
G04 #@! TF.FileFunction,Copper,L2,Bot*
G04 #@! TF.FilePolarity,Positive*
%FSLAX46Y46*%
G04 Gerber Fmt 4.6, Leading zero omitted, Abs format (unit mm)*
G04 Created by KiCad (PCBNEW 5.1.6-c6e7f7d~87~ubuntu19.10.1) date 2020-11-06 01:06:48*
%MOMM*%
%LPD*%
G01*
G04 APERTURE LIST*
G04 #@! TA.AperFunction,SMDPad,CuDef*
%ADD10R,3.502000X2.613000*%
G04 #@! TD*
G04 #@! TA.AperFunction,SMDPad,CuDef*
%ADD11R,0.802000X1.505000*%
G04 #@! TD*
G04 #@! TA.AperFunction,ComponentPad*
%ADD12C,1.524000*%
G04 #@! TD*
G04 #@! TA.AperFunction,SMDPad,CuDef*
%ADD13R,1.900000X2.000000*%
G04 #@! TD*
G04 #@! TA.AperFunction,SMDPad,CuDef*
%ADD14R,2.100000X1.475000*%
G04 #@! TD*
G04 #@! TA.AperFunction,SMDPad,CuDef*
%ADD15R,1.380000X0.450000*%
G04 #@! TD*
G04 #@! TA.AperFunction,ViaPad*
%ADD16C,0.800000*%
G04 #@! TD*
G04 #@! TA.AperFunction,ViaPad*
%ADD17C,0.600000*%
G04 #@! TD*
G04 #@! TA.AperFunction,Conductor*
%ADD18C,0.350000*%
G04 #@! TD*
G04 #@! TA.AperFunction,Conductor*
%ADD19C,0.250000*%
G04 #@! TD*
G04 #@! TA.AperFunction,Conductor*
%ADD20C,0.950000*%
G04 #@! TD*
G04 APERTURE END LIST*
G04 #@! TA.AperFunction,SMDPad,CuDef*
G36*
G01*
X84329600Y-43153400D02*
X84329600Y-41653400D01*
G75*
G02*
X84704600Y-41278400I375000J0D01*
G01*
X85454600Y-41278400D01*
G75*
G02*
X85829600Y-41653400I0J-375000D01*
G01*
X85829600Y-43153400D01*
G75*
G02*
X85454600Y-43528400I-375000J0D01*
G01*
X84704600Y-43528400D01*
G75*
G02*
X84329600Y-43153400I0J375000D01*
G01*
G37*
G04 #@! TD.AperFunction*
G04 #@! TA.AperFunction,SMDPad,CuDef*
G36*
G01*
X84329600Y-50453400D02*
X84329600Y-48953400D01*
G75*
G02*
X84704600Y-48578400I375000J0D01*
G01*
X85454600Y-48578400D01*
G75*
G02*
X85829600Y-48953400I0J-375000D01*
G01*
X85829600Y-50453400D01*
G75*
G02*
X85454600Y-50828400I-375000J0D01*
G01*
X84704600Y-50828400D01*
G75*
G02*
X84329600Y-50453400I0J375000D01*
G01*
G37*
G04 #@! TD.AperFunction*
G04 #@! TA.AperFunction,SMDPad,CuDef*
G36*
G01*
X80754599Y-41065900D02*
X80754599Y-41540900D01*
G75*
G02*
X80517099Y-41778400I-237500J0D01*
G01*
X79942099Y-41778400D01*
G75*
G02*
X79704599Y-41540900I0J237500D01*
G01*
X79704599Y-41065900D01*
G75*
G02*
X79942099Y-40828400I237500J0D01*
G01*
X80517099Y-40828400D01*
G75*
G02*
X80754599Y-41065900I0J-237500D01*
G01*
G37*
G04 #@! TD.AperFunction*
G04 #@! TA.AperFunction,SMDPad,CuDef*
G36*
G01*
X82504599Y-41065900D02*
X82504599Y-41540900D01*
G75*
G02*
X82267099Y-41778400I-237500J0D01*
G01*
X81692099Y-41778400D01*
G75*
G02*
X81454599Y-41540900I0J237500D01*
G01*
X81454599Y-41065900D01*
G75*
G02*
X81692099Y-40828400I237500J0D01*
G01*
X82267099Y-40828400D01*
G75*
G02*
X82504599Y-41065900I0J-237500D01*
G01*
G37*
G04 #@! TD.AperFunction*
D10*
X79129600Y-45872400D03*
D11*
X77224600Y-48369900D03*
X78494600Y-48369900D03*
X79764600Y-48369900D03*
X81034600Y-48369900D03*
X81034600Y-43374900D03*
X79764600Y-43374900D03*
X78494600Y-43374900D03*
X77224600Y-43374900D03*
D12*
X68097700Y-39050200D03*
X70597700Y-39050200D03*
X73097700Y-39050200D03*
X75597700Y-39050200D03*
X78097700Y-39050200D03*
X80597700Y-39050200D03*
X83097700Y-39050200D03*
X85597700Y-39050200D03*
X85597700Y-53050200D03*
X83097700Y-53050200D03*
X80597700Y-53050200D03*
X78097700Y-53050200D03*
X75597700Y-53050200D03*
X73097700Y-53050200D03*
X70597700Y-53050200D03*
X68097700Y-53050200D03*
G04 #@! TA.AperFunction,SMDPad,CuDef*
G36*
G01*
X83667100Y-46128400D02*
X83192100Y-46128400D01*
G75*
G02*
X82954600Y-45890900I0J237500D01*
G01*
X82954600Y-45315900D01*
G75*
G02*
X83192100Y-45078400I237500J0D01*
G01*
X83667100Y-45078400D01*
G75*
G02*
X83904600Y-45315900I0J-237500D01*
G01*
X83904600Y-45890900D01*
G75*
G02*
X83667100Y-46128400I-237500J0D01*
G01*
G37*
G04 #@! TD.AperFunction*
G04 #@! TA.AperFunction,SMDPad,CuDef*
G36*
G01*
X83667100Y-47878400D02*
X83192100Y-47878400D01*
G75*
G02*
X82954600Y-47640900I0J237500D01*
G01*
X82954600Y-47065900D01*
G75*
G02*
X83192100Y-46828400I237500J0D01*
G01*
X83667100Y-46828400D01*
G75*
G02*
X83904600Y-47065900I0J-237500D01*
G01*
X83904600Y-47640900D01*
G75*
G02*
X83667100Y-47878400I-237500J0D01*
G01*
G37*
G04 #@! TD.AperFunction*
G04 #@! TA.AperFunction,SMDPad,CuDef*
G36*
G01*
X82354600Y-54759900D02*
X82354600Y-55234900D01*
G75*
G02*
X82117100Y-55472400I-237500J0D01*
G01*
X81542100Y-55472400D01*
G75*
G02*
X81304600Y-55234900I0J237500D01*
G01*
X81304600Y-54759900D01*
G75*
G02*
X81542100Y-54522400I237500J0D01*
G01*
X82117100Y-54522400D01*
G75*
G02*
X82354600Y-54759900I0J-237500D01*
G01*
G37*
G04 #@! TD.AperFunction*
G04 #@! TA.AperFunction,SMDPad,CuDef*
G36*
G01*
X80604600Y-54759900D02*
X80604600Y-55234900D01*
G75*
G02*
X80367100Y-55472400I-237500J0D01*
G01*
X79792100Y-55472400D01*
G75*
G02*
X79554600Y-55234900I0J237500D01*
G01*
X79554600Y-54759900D01*
G75*
G02*
X79792100Y-54522400I237500J0D01*
G01*
X80367100Y-54522400D01*
G75*
G02*
X80604600Y-54759900I0J-237500D01*
G01*
G37*
G04 #@! TD.AperFunction*
G04 #@! TA.AperFunction,SMDPad,CuDef*
G36*
G01*
X71129600Y-54765900D02*
X71129600Y-55240900D01*
G75*
G02*
X70892100Y-55478400I-237500J0D01*
G01*
X70317100Y-55478400D01*
G75*
G02*
X70079600Y-55240900I0J237500D01*
G01*
X70079600Y-54765900D01*
G75*
G02*
X70317100Y-54528400I237500J0D01*
G01*
X70892100Y-54528400D01*
G75*
G02*
X71129600Y-54765900I0J-237500D01*
G01*
G37*
G04 #@! TD.AperFunction*
G04 #@! TA.AperFunction,SMDPad,CuDef*
G36*
G01*
X72879600Y-54765900D02*
X72879600Y-55240900D01*
G75*
G02*
X72642100Y-55478400I-237500J0D01*
G01*
X72067100Y-55478400D01*
G75*
G02*
X71829600Y-55240900I0J237500D01*
G01*
X71829600Y-54765900D01*
G75*
G02*
X72067100Y-54528400I237500J0D01*
G01*
X72642100Y-54528400D01*
G75*
G02*
X72879600Y-54765900I0J-237500D01*
G01*
G37*
G04 #@! TD.AperFunction*
D13*
X68243600Y-42638400D03*
X68243600Y-49358400D03*
D14*
X70543600Y-43585900D03*
X70543600Y-48510900D03*
D15*
X70903600Y-44748400D03*
X70903600Y-45398400D03*
X70903600Y-46048400D03*
X70903600Y-46698400D03*
X70903600Y-47348400D03*
G04 #@! TA.AperFunction,SMDPad,CuDef*
G36*
G01*
X84454600Y-54759900D02*
X84454600Y-55234900D01*
G75*
G02*
X84217100Y-55472400I-237500J0D01*
G01*
X83642100Y-55472400D01*
G75*
G02*
X83404600Y-55234900I0J237500D01*
G01*
X83404600Y-54759900D01*
G75*
G02*
X83642100Y-54522400I237500J0D01*
G01*
X84217100Y-54522400D01*
G75*
G02*
X84454600Y-54759900I0J-237500D01*
G01*
G37*
G04 #@! TD.AperFunction*
G04 #@! TA.AperFunction,SMDPad,CuDef*
G36*
G01*
X86204600Y-54759900D02*
X86204600Y-55234900D01*
G75*
G02*
X85967100Y-55472400I-237500J0D01*
G01*
X85392100Y-55472400D01*
G75*
G02*
X85154600Y-55234900I0J237500D01*
G01*
X85154600Y-54759900D01*
G75*
G02*
X85392100Y-54522400I237500J0D01*
G01*
X85967100Y-54522400D01*
G75*
G02*
X86204600Y-54759900I0J-237500D01*
G01*
G37*
G04 #@! TD.AperFunction*
G04 #@! TA.AperFunction,SMDPad,CuDef*
G36*
G01*
X77229600Y-54765900D02*
X77229600Y-55240900D01*
G75*
G02*
X76992100Y-55478400I-237500J0D01*
G01*
X76417100Y-55478400D01*
G75*
G02*
X76179600Y-55240900I0J237500D01*
G01*
X76179600Y-54765900D01*
G75*
G02*
X76417100Y-54528400I237500J0D01*
G01*
X76992100Y-54528400D01*
G75*
G02*
X77229600Y-54765900I0J-237500D01*
G01*
G37*
G04 #@! TD.AperFunction*
G04 #@! TA.AperFunction,SMDPad,CuDef*
G36*
G01*
X75479600Y-54765900D02*
X75479600Y-55240900D01*
G75*
G02*
X75242100Y-55478400I-237500J0D01*
G01*
X74667100Y-55478400D01*
G75*
G02*
X74429600Y-55240900I0J237500D01*
G01*
X74429600Y-54765900D01*
G75*
G02*
X74667100Y-54528400I237500J0D01*
G01*
X75242100Y-54528400D01*
G75*
G02*
X75479600Y-54765900I0J-237500D01*
G01*
G37*
G04 #@! TD.AperFunction*
G04 #@! TA.AperFunction,SMDPad,CuDef*
G36*
G01*
X79004599Y-41065900D02*
X79004599Y-41540900D01*
G75*
G02*
X78767099Y-41778400I-237500J0D01*
G01*
X78192099Y-41778400D01*
G75*
G02*
X77954599Y-41540900I0J237500D01*
G01*
X77954599Y-41065900D01*
G75*
G02*
X78192099Y-40828400I237500J0D01*
G01*
X78767099Y-40828400D01*
G75*
G02*
X79004599Y-41065900I0J-237500D01*
G01*
G37*
G04 #@! TD.AperFunction*
G04 #@! TA.AperFunction,SMDPad,CuDef*
G36*
G01*
X77254599Y-41065900D02*
X77254599Y-41540900D01*
G75*
G02*
X77017099Y-41778400I-237500J0D01*
G01*
X76442099Y-41778400D01*
G75*
G02*
X76204599Y-41540900I0J237500D01*
G01*
X76204599Y-41065900D01*
G75*
G02*
X76442099Y-40828400I237500J0D01*
G01*
X77017099Y-40828400D01*
G75*
G02*
X77254599Y-41065900I0J-237500D01*
G01*
G37*
G04 #@! TD.AperFunction*
G04 #@! TA.AperFunction,SMDPad,CuDef*
G36*
G01*
X74254600Y-47615900D02*
X74254600Y-48090900D01*
G75*
G02*
X74017100Y-48328400I-237500J0D01*
G01*
X73442100Y-48328400D01*
G75*
G02*
X73204600Y-48090900I0J237500D01*
G01*
X73204600Y-47615900D01*
G75*
G02*
X73442100Y-47378400I237500J0D01*
G01*
X74017100Y-47378400D01*
G75*
G02*
X74254600Y-47615900I0J-237500D01*
G01*
G37*
G04 #@! TD.AperFunction*
G04 #@! TA.AperFunction,SMDPad,CuDef*
G36*
G01*
X76004600Y-47615900D02*
X76004600Y-48090900D01*
G75*
G02*
X75767100Y-48328400I-237500J0D01*
G01*
X75192100Y-48328400D01*
G75*
G02*
X74954600Y-48090900I0J237500D01*
G01*
X74954600Y-47615900D01*
G75*
G02*
X75192100Y-47378400I237500J0D01*
G01*
X75767100Y-47378400D01*
G75*
G02*
X76004600Y-47615900I0J-237500D01*
G01*
G37*
G04 #@! TD.AperFunction*
D16*
X75828094Y-45878400D03*
X77779600Y-45203400D03*
X77779600Y-46653400D03*
X68579600Y-55003400D03*
X78429600Y-55003400D03*
X85279600Y-51153400D03*
D17*
X76779600Y-53953400D03*
X76879582Y-50103400D03*
D16*
X81629600Y-50553400D03*
X73079604Y-49203400D03*
D18*
X70903600Y-43945900D02*
X70543600Y-43585900D01*
X70903600Y-44748400D02*
X70903600Y-43945900D01*
X79764600Y-45237400D02*
X79129600Y-45872400D01*
X79764600Y-43374900D02*
X79764600Y-45237400D01*
X78698600Y-45872400D02*
X79129600Y-45872400D01*
X77224600Y-44398400D02*
X78698600Y-45872400D01*
X77224600Y-43374900D02*
X77224600Y-44398400D01*
X77224600Y-44398400D02*
X77229600Y-44403400D01*
X69986099Y-43028399D02*
X68243600Y-43028399D01*
X70543600Y-43585900D02*
X69986099Y-43028399D01*
X70096100Y-48958400D02*
X70543600Y-48510900D01*
X68243600Y-48958400D02*
X70096100Y-48958400D01*
X70187100Y-48510900D02*
X70543600Y-48510900D01*
X81106100Y-43303400D02*
X81034600Y-43374900D01*
X85079600Y-42403400D02*
X85079600Y-42853400D01*
X83429600Y-44503400D02*
X83429600Y-45603400D01*
X85079600Y-42853400D02*
X83429600Y-44503400D01*
X79398600Y-45603400D02*
X79129600Y-45872400D01*
X83429600Y-45603400D02*
X79398600Y-45603400D01*
X78410600Y-45153400D02*
X79129600Y-45872400D01*
X76729600Y-41303399D02*
X76729599Y-41303400D01*
X76729600Y-41853400D02*
X76729600Y-41303399D01*
X77224600Y-42348400D02*
X76729600Y-41853400D01*
X77224600Y-43374900D02*
X77224600Y-42348400D01*
X79764600Y-43374900D02*
X79764600Y-42368400D01*
X80229599Y-41903401D02*
X80229599Y-41303400D01*
X79764600Y-42368400D02*
X80229599Y-41903401D01*
X74698094Y-44748400D02*
X75828094Y-45878400D01*
X70903600Y-44748400D02*
X74698094Y-44748400D01*
X70279600Y-48503400D02*
X70579600Y-48503400D01*
X69479600Y-47703400D02*
X70279600Y-48503400D01*
X69479600Y-44303400D02*
X69479600Y-47703400D01*
X70197100Y-43585900D02*
X69479600Y-44303400D01*
X70543600Y-43585900D02*
X70197100Y-43585900D01*
D19*
X70604600Y-55003400D02*
X68579600Y-55003400D01*
D18*
X81034600Y-43374900D02*
X81034600Y-42948400D01*
X81979599Y-42003401D02*
X81979599Y-41303400D01*
X81034600Y-42948400D02*
X81979599Y-42003401D01*
X72279600Y-47853400D02*
X73729600Y-47853400D01*
X71774600Y-47348400D02*
X72279600Y-47853400D01*
X70903600Y-47348400D02*
X71774600Y-47348400D01*
D19*
X72279600Y-49853400D02*
X72279600Y-47853400D01*
X71329600Y-50803400D02*
X72279600Y-49853400D01*
X70179600Y-50803400D02*
X71329600Y-50803400D01*
X69379600Y-51603400D02*
X70179600Y-50803400D01*
X69379600Y-54953400D02*
X69379600Y-51603400D01*
D18*
X81179600Y-40303400D02*
X81979599Y-41103399D01*
X75829600Y-40303400D02*
X81179600Y-40303400D01*
X75229600Y-40903400D02*
X75829600Y-40303400D01*
X76679600Y-44903400D02*
X75229600Y-43453400D01*
X75229600Y-43453400D02*
X75229600Y-40903400D01*
X76679600Y-46153400D02*
X76679600Y-44903400D01*
X81979599Y-41103399D02*
X81979599Y-41303400D01*
X76179600Y-46653400D02*
X76679600Y-46153400D01*
X74279600Y-46653400D02*
X76179600Y-46653400D01*
X73729600Y-47203400D02*
X74279600Y-46653400D01*
X73729600Y-47853400D02*
X73729600Y-47203400D01*
D19*
X80079600Y-54997400D02*
X78435600Y-54997400D01*
X78435600Y-54997400D02*
X78429600Y-55003400D01*
D18*
X83429600Y-47353400D02*
X83429600Y-49253400D01*
X83429600Y-49253400D02*
X83879600Y-49703400D01*
X83879600Y-49703400D02*
X85079600Y-49703400D01*
X83429600Y-48369900D02*
X83429600Y-47353400D01*
X82263100Y-48369900D02*
X83429600Y-48369900D01*
X81034600Y-48369900D02*
X82263100Y-48369900D01*
D19*
X85279600Y-49903400D02*
X85079600Y-49703400D01*
X85279600Y-51153400D02*
X85279600Y-49903400D01*
X79764600Y-49638400D02*
X79764600Y-48369900D01*
X82429600Y-49803400D02*
X79929600Y-49803400D01*
X84379600Y-51753400D02*
X82429600Y-49803400D01*
X84379600Y-53653400D02*
X84379600Y-51753400D01*
X85679600Y-54953400D02*
X84379600Y-53653400D01*
X79929600Y-49803400D02*
X79764600Y-49638400D01*
X85679600Y-54997400D02*
X85679600Y-54953400D01*
X76879600Y-54828400D02*
X76704600Y-55003400D01*
X76704600Y-54028400D02*
X76779600Y-53953400D01*
X76704600Y-55003400D02*
X76704600Y-54028400D01*
X78494600Y-49372400D02*
X77763600Y-50103400D01*
X78494600Y-48369900D02*
X78494600Y-49372400D01*
X77763600Y-50103400D02*
X76879582Y-50103400D01*
X78494600Y-41318401D02*
X78479599Y-41303400D01*
X78494600Y-43374900D02*
X78494600Y-41318401D01*
X74829603Y-50953399D02*
X73079604Y-49203400D01*
X81229601Y-50953399D02*
X74829603Y-50953399D01*
X81629600Y-50553400D02*
X81229601Y-50953399D01*
D20*
X81829600Y-54997400D02*
X83929600Y-54997400D01*
X72354600Y-55003400D02*
X74954600Y-55003400D01*
D19*
X75996100Y-48369900D02*
X75479600Y-47853400D01*
X77224600Y-48369900D02*
X75996100Y-48369900D01*
M02*
