%FSLAX45Y45*%
G04 Gerber Fmt 4.5, Leading zero omitted, Abs format (unit mm)*
G04 Created by KiCad (PCBNEW 5.1.6-c6e7f7d~87~ubuntu19.10.1) date 2020-11-06 01:06:04*
%MOMM*%
%LPD*%
G01*
G04 APERTURE LIST*
%TA.AperFunction,Profile*%
%ADD10C,0.150000*%
%TD*%
%ADD11C,0.200000*%
%ADD12C,0.300000*%
G04 APERTURE END LIST*
D10*
X6677960Y-3605340D02*
X6687960Y-3605340D01*
X6677960Y-5605340D02*
X6677960Y-3605340D01*
X6687960Y-5605340D02*
X6677960Y-5605340D01*
X8687960Y-5605340D02*
X6687960Y-5605340D01*
X8687960Y-3605340D02*
X8687960Y-5605340D01*
X6687960Y-3605340D02*
X8687960Y-3605340D01*
D11*
X8485960Y-4410340D02*
X8575960Y-4500340D01*
X8575960Y-4410340D02*
X8485960Y-4500340D01*
X8485960Y-4710340D02*
X8575960Y-4800340D01*
X8575960Y-4710340D02*
X8485960Y-4800340D01*
D12*
X6956888Y-6078554D02*
X6956888Y-5778554D01*
X7028317Y-5778554D01*
X7071174Y-5792840D01*
X7099746Y-5821411D01*
X7114031Y-5849983D01*
X7128317Y-5907126D01*
X7128317Y-5949983D01*
X7114031Y-6007126D01*
X7099746Y-6035697D01*
X7071174Y-6064269D01*
X7028317Y-6078554D01*
X6956888Y-6078554D01*
X7256888Y-6078554D02*
X7256888Y-5878554D01*
X7256888Y-5935697D02*
X7271174Y-5907126D01*
X7285460Y-5892840D01*
X7314031Y-5878554D01*
X7342603Y-5878554D01*
X7442603Y-6078554D02*
X7442603Y-5878554D01*
X7442603Y-5778554D02*
X7428317Y-5792840D01*
X7442603Y-5807126D01*
X7456888Y-5792840D01*
X7442603Y-5778554D01*
X7442603Y-5807126D01*
X7628317Y-6078554D02*
X7599746Y-6064269D01*
X7585460Y-6035697D01*
X7585460Y-5778554D01*
X7785460Y-6078554D02*
X7756888Y-6064269D01*
X7742603Y-6035697D01*
X7742603Y-5778554D01*
X8128317Y-6078554D02*
X8128317Y-5778554D01*
X8228317Y-5992840D01*
X8328317Y-5778554D01*
X8328317Y-6078554D01*
X8599746Y-6078554D02*
X8599746Y-5921411D01*
X8585460Y-5892840D01*
X8556888Y-5878554D01*
X8499746Y-5878554D01*
X8471174Y-5892840D01*
X8599746Y-6064269D02*
X8571174Y-6078554D01*
X8499746Y-6078554D01*
X8471174Y-6064269D01*
X8456888Y-6035697D01*
X8456888Y-6007126D01*
X8471174Y-5978554D01*
X8499746Y-5964269D01*
X8571174Y-5964269D01*
X8599746Y-5949983D01*
X8742603Y-5878554D02*
X8742603Y-6178554D01*
X8742603Y-5892840D02*
X8771174Y-5878554D01*
X8828317Y-5878554D01*
X8856888Y-5892840D01*
X8871174Y-5907126D01*
X8885460Y-5935697D01*
X8885460Y-6021411D01*
X8871174Y-6049983D01*
X8856888Y-6064269D01*
X8828317Y-6078554D01*
X8771174Y-6078554D01*
X8742603Y-6064269D01*
X9014031Y-6049983D02*
X9028317Y-6064269D01*
X9014031Y-6078554D01*
X8999746Y-6064269D01*
X9014031Y-6049983D01*
X9014031Y-6078554D01*
X9014031Y-5892840D02*
X9028317Y-5907126D01*
X9014031Y-5921411D01*
X8999746Y-5907126D01*
X9014031Y-5892840D01*
X9014031Y-5921411D01*
X6580460Y-6527840D02*
X6670460Y-6617840D01*
X6670460Y-6527840D02*
X6580460Y-6617840D01*
X7014031Y-6408554D02*
X7042603Y-6408554D01*
X7071174Y-6422840D01*
X7085460Y-6437126D01*
X7099746Y-6465697D01*
X7114031Y-6522840D01*
X7114031Y-6594269D01*
X7099746Y-6651411D01*
X7085460Y-6679983D01*
X7071174Y-6694269D01*
X7042603Y-6708554D01*
X7014031Y-6708554D01*
X6985460Y-6694269D01*
X6971174Y-6679983D01*
X6956888Y-6651411D01*
X6942603Y-6594269D01*
X6942603Y-6522840D01*
X6956888Y-6465697D01*
X6971174Y-6437126D01*
X6985460Y-6422840D01*
X7014031Y-6408554D01*
X7242603Y-6679983D02*
X7256888Y-6694269D01*
X7242603Y-6708554D01*
X7228317Y-6694269D01*
X7242603Y-6679983D01*
X7242603Y-6708554D01*
X7399746Y-6708554D02*
X7456888Y-6708554D01*
X7485460Y-6694269D01*
X7499746Y-6679983D01*
X7528317Y-6637126D01*
X7542603Y-6579983D01*
X7542603Y-6465697D01*
X7528317Y-6437126D01*
X7514031Y-6422840D01*
X7485460Y-6408554D01*
X7428317Y-6408554D01*
X7399746Y-6422840D01*
X7385460Y-6437126D01*
X7371174Y-6465697D01*
X7371174Y-6537126D01*
X7385460Y-6565697D01*
X7399746Y-6579983D01*
X7428317Y-6594269D01*
X7485460Y-6594269D01*
X7514031Y-6579983D01*
X7528317Y-6565697D01*
X7542603Y-6537126D01*
X7728317Y-6408554D02*
X7756888Y-6408554D01*
X7785460Y-6422840D01*
X7799746Y-6437126D01*
X7814031Y-6465697D01*
X7828317Y-6522840D01*
X7828317Y-6594269D01*
X7814031Y-6651411D01*
X7799746Y-6679983D01*
X7785460Y-6694269D01*
X7756888Y-6708554D01*
X7728317Y-6708554D01*
X7699746Y-6694269D01*
X7685460Y-6679983D01*
X7671174Y-6651411D01*
X7656888Y-6594269D01*
X7656888Y-6522840D01*
X7671174Y-6465697D01*
X7685460Y-6437126D01*
X7699746Y-6422840D01*
X7728317Y-6408554D01*
X7956888Y-6708554D02*
X7956888Y-6508554D01*
X7956888Y-6537126D02*
X7971174Y-6522840D01*
X7999746Y-6508554D01*
X8042603Y-6508554D01*
X8071174Y-6522840D01*
X8085460Y-6551411D01*
X8085460Y-6708554D01*
X8085460Y-6551411D02*
X8099746Y-6522840D01*
X8128317Y-6508554D01*
X8171174Y-6508554D01*
X8199746Y-6522840D01*
X8214031Y-6551411D01*
X8214031Y-6708554D01*
X8356888Y-6708554D02*
X8356888Y-6508554D01*
X8356888Y-6537126D02*
X8371174Y-6522840D01*
X8399746Y-6508554D01*
X8442603Y-6508554D01*
X8471174Y-6522840D01*
X8485460Y-6551411D01*
X8485460Y-6708554D01*
X8485460Y-6551411D02*
X8499746Y-6522840D01*
X8528317Y-6508554D01*
X8571174Y-6508554D01*
X8599746Y-6522840D01*
X8614031Y-6551411D01*
X8614031Y-6708554D01*
X9199746Y-6394269D02*
X8942603Y-6779983D01*
X9585460Y-6408554D02*
X9614031Y-6408554D01*
X9642603Y-6422840D01*
X9656888Y-6437126D01*
X9671174Y-6465697D01*
X9685460Y-6522840D01*
X9685460Y-6594269D01*
X9671174Y-6651411D01*
X9656888Y-6679983D01*
X9642603Y-6694269D01*
X9614031Y-6708554D01*
X9585460Y-6708554D01*
X9556888Y-6694269D01*
X9542603Y-6679983D01*
X9528317Y-6651411D01*
X9514031Y-6594269D01*
X9514031Y-6522840D01*
X9528317Y-6465697D01*
X9542603Y-6437126D01*
X9556888Y-6422840D01*
X9585460Y-6408554D01*
X9814031Y-6679983D02*
X9828317Y-6694269D01*
X9814031Y-6708554D01*
X9799746Y-6694269D01*
X9814031Y-6679983D01*
X9814031Y-6708554D01*
X10014031Y-6408554D02*
X10042603Y-6408554D01*
X10071174Y-6422840D01*
X10085460Y-6437126D01*
X10099746Y-6465697D01*
X10114031Y-6522840D01*
X10114031Y-6594269D01*
X10099746Y-6651411D01*
X10085460Y-6679983D01*
X10071174Y-6694269D01*
X10042603Y-6708554D01*
X10014031Y-6708554D01*
X9985460Y-6694269D01*
X9971174Y-6679983D01*
X9956888Y-6651411D01*
X9942603Y-6594269D01*
X9942603Y-6522840D01*
X9956888Y-6465697D01*
X9971174Y-6437126D01*
X9985460Y-6422840D01*
X10014031Y-6408554D01*
X10214031Y-6408554D02*
X10399746Y-6408554D01*
X10299746Y-6522840D01*
X10342603Y-6522840D01*
X10371174Y-6537126D01*
X10385460Y-6551411D01*
X10399746Y-6579983D01*
X10399746Y-6651411D01*
X10385460Y-6679983D01*
X10371174Y-6694269D01*
X10342603Y-6708554D01*
X10256888Y-6708554D01*
X10228317Y-6694269D01*
X10214031Y-6679983D01*
X10671174Y-6408554D02*
X10528317Y-6408554D01*
X10514031Y-6551411D01*
X10528317Y-6537126D01*
X10556888Y-6522840D01*
X10628317Y-6522840D01*
X10656888Y-6537126D01*
X10671174Y-6551411D01*
X10685460Y-6579983D01*
X10685460Y-6651411D01*
X10671174Y-6679983D01*
X10656888Y-6694269D01*
X10628317Y-6708554D01*
X10556888Y-6708554D01*
X10528317Y-6694269D01*
X10514031Y-6679983D01*
X10799746Y-6408554D02*
X10799746Y-6465697D01*
X10914031Y-6408554D02*
X10914031Y-6465697D01*
X11356888Y-6822840D02*
X11342603Y-6808554D01*
X11314031Y-6765697D01*
X11299746Y-6737126D01*
X11285460Y-6694269D01*
X11271174Y-6622840D01*
X11271174Y-6565697D01*
X11285460Y-6494269D01*
X11299746Y-6451411D01*
X11314031Y-6422840D01*
X11342603Y-6379983D01*
X11356888Y-6365697D01*
X11456888Y-6437126D02*
X11471174Y-6422840D01*
X11499746Y-6408554D01*
X11571174Y-6408554D01*
X11599746Y-6422840D01*
X11614031Y-6437126D01*
X11628317Y-6465697D01*
X11628317Y-6494269D01*
X11614031Y-6537126D01*
X11442603Y-6708554D01*
X11628317Y-6708554D01*
X11985460Y-6708554D02*
X11985460Y-6408554D01*
X12114031Y-6708554D02*
X12114031Y-6551411D01*
X12099746Y-6522840D01*
X12071174Y-6508554D01*
X12028317Y-6508554D01*
X11999746Y-6522840D01*
X11985460Y-6537126D01*
X12299746Y-6708554D02*
X12271174Y-6694269D01*
X12256888Y-6679983D01*
X12242603Y-6651411D01*
X12242603Y-6565697D01*
X12256888Y-6537126D01*
X12271174Y-6522840D01*
X12299746Y-6508554D01*
X12342603Y-6508554D01*
X12371174Y-6522840D01*
X12385460Y-6537126D01*
X12399746Y-6565697D01*
X12399746Y-6651411D01*
X12385460Y-6679983D01*
X12371174Y-6694269D01*
X12342603Y-6708554D01*
X12299746Y-6708554D01*
X12571174Y-6708554D02*
X12542603Y-6694269D01*
X12528317Y-6665697D01*
X12528317Y-6408554D01*
X12799746Y-6694269D02*
X12771174Y-6708554D01*
X12714031Y-6708554D01*
X12685460Y-6694269D01*
X12671174Y-6665697D01*
X12671174Y-6551411D01*
X12685460Y-6522840D01*
X12714031Y-6508554D01*
X12771174Y-6508554D01*
X12799746Y-6522840D01*
X12814031Y-6551411D01*
X12814031Y-6579983D01*
X12671174Y-6608554D01*
X12928317Y-6694269D02*
X12956888Y-6708554D01*
X13014031Y-6708554D01*
X13042603Y-6694269D01*
X13056888Y-6665697D01*
X13056888Y-6651411D01*
X13042603Y-6622840D01*
X13014031Y-6608554D01*
X12971174Y-6608554D01*
X12942603Y-6594269D01*
X12928317Y-6565697D01*
X12928317Y-6551411D01*
X12942603Y-6522840D01*
X12971174Y-6508554D01*
X13014031Y-6508554D01*
X13042603Y-6522840D01*
X13156888Y-6822840D02*
X13171174Y-6808554D01*
X13199746Y-6765697D01*
X13214031Y-6737126D01*
X13228317Y-6694269D01*
X13242603Y-6622840D01*
X13242603Y-6565697D01*
X13228317Y-6494269D01*
X13214031Y-6451411D01*
X13199746Y-6422840D01*
X13171174Y-6379983D01*
X13156888Y-6365697D01*
X13699746Y-6822840D02*
X13685460Y-6808554D01*
X13656888Y-6765697D01*
X13642603Y-6737126D01*
X13628317Y-6694269D01*
X13614031Y-6622840D01*
X13614031Y-6565697D01*
X13628317Y-6494269D01*
X13642603Y-6451411D01*
X13656888Y-6422840D01*
X13685460Y-6379983D01*
X13699746Y-6365697D01*
X13814031Y-6508554D02*
X13814031Y-6708554D01*
X13814031Y-6537126D02*
X13828317Y-6522840D01*
X13856888Y-6508554D01*
X13899746Y-6508554D01*
X13928317Y-6522840D01*
X13942603Y-6551411D01*
X13942603Y-6708554D01*
X14128317Y-6708554D02*
X14099746Y-6694269D01*
X14085460Y-6679983D01*
X14071174Y-6651411D01*
X14071174Y-6565697D01*
X14085460Y-6537126D01*
X14099746Y-6522840D01*
X14128317Y-6508554D01*
X14171174Y-6508554D01*
X14199746Y-6522840D01*
X14214031Y-6537126D01*
X14228317Y-6565697D01*
X14228317Y-6651411D01*
X14214031Y-6679983D01*
X14199746Y-6694269D01*
X14171174Y-6708554D01*
X14128317Y-6708554D01*
X14314031Y-6508554D02*
X14428317Y-6508554D01*
X14356888Y-6408554D02*
X14356888Y-6665697D01*
X14371174Y-6694269D01*
X14399746Y-6708554D01*
X14428317Y-6708554D01*
X14756888Y-6508554D02*
X14756888Y-6808554D01*
X14756888Y-6522840D02*
X14785460Y-6508554D01*
X14842603Y-6508554D01*
X14871174Y-6522840D01*
X14885460Y-6537126D01*
X14899746Y-6565697D01*
X14899746Y-6651411D01*
X14885460Y-6679983D01*
X14871174Y-6694269D01*
X14842603Y-6708554D01*
X14785460Y-6708554D01*
X14756888Y-6694269D01*
X15071174Y-6708554D02*
X15042603Y-6694269D01*
X15028317Y-6665697D01*
X15028317Y-6408554D01*
X15314031Y-6708554D02*
X15314031Y-6551411D01*
X15299746Y-6522840D01*
X15271174Y-6508554D01*
X15214031Y-6508554D01*
X15185460Y-6522840D01*
X15314031Y-6694269D02*
X15285460Y-6708554D01*
X15214031Y-6708554D01*
X15185460Y-6694269D01*
X15171174Y-6665697D01*
X15171174Y-6637126D01*
X15185460Y-6608554D01*
X15214031Y-6594269D01*
X15285460Y-6594269D01*
X15314031Y-6579983D01*
X15414031Y-6508554D02*
X15528317Y-6508554D01*
X15456888Y-6408554D02*
X15456888Y-6665697D01*
X15471174Y-6694269D01*
X15499746Y-6708554D01*
X15528317Y-6708554D01*
X15742603Y-6694269D02*
X15714031Y-6708554D01*
X15656888Y-6708554D01*
X15628317Y-6694269D01*
X15614031Y-6665697D01*
X15614031Y-6551411D01*
X15628317Y-6522840D01*
X15656888Y-6508554D01*
X15714031Y-6508554D01*
X15742603Y-6522840D01*
X15756888Y-6551411D01*
X15756888Y-6579983D01*
X15614031Y-6608554D01*
X16014031Y-6708554D02*
X16014031Y-6408554D01*
X16014031Y-6694269D02*
X15985460Y-6708554D01*
X15928317Y-6708554D01*
X15899746Y-6694269D01*
X15885460Y-6679983D01*
X15871174Y-6651411D01*
X15871174Y-6565697D01*
X15885460Y-6537126D01*
X15899746Y-6522840D01*
X15928317Y-6508554D01*
X15985460Y-6508554D01*
X16014031Y-6522840D01*
X16128317Y-6822840D02*
X16142603Y-6808554D01*
X16171174Y-6765697D01*
X16185460Y-6737126D01*
X16199746Y-6694269D01*
X16214031Y-6622840D01*
X16214031Y-6565697D01*
X16199746Y-6494269D01*
X16185460Y-6451411D01*
X16171174Y-6422840D01*
X16142603Y-6379983D01*
X16128317Y-6365697D01*
M02*
