G04 #@! TF.GenerationSoftware,KiCad,Pcbnew,5.1.6-c6e7f7d~87~ubuntu19.10.1*
G04 #@! TF.CreationDate,2020-11-06T01:06:48+01:00*
G04 #@! TF.ProjectId,board_attiny48_88,626f6172-645f-4617-9474-696e7934385f,rev?*
G04 #@! TF.SameCoordinates,Original*
G04 #@! TF.FileFunction,Legend,Top*
G04 #@! TF.FilePolarity,Positive*
%FSLAX46Y46*%
G04 Gerber Fmt 4.6, Leading zero omitted, Abs format (unit mm)*
G04 Created by KiCad (PCBNEW 5.1.6-c6e7f7d~87~ubuntu19.10.1) date 2020-11-06 01:06:48*
%MOMM*%
%LPD*%
G01*
G04 APERTURE LIST*
%ADD10C,0.120000*%
%ADD11C,0.150000*%
G04 APERTURE END LIST*
D10*
X80484822Y-46389276D02*
X80820697Y-46053400D01*
X73438503Y-46053400D02*
X73774378Y-46389276D01*
X73774378Y-45717524D02*
X73438503Y-46053400D01*
X77129600Y-42362303D02*
X77465476Y-42698178D01*
X76793724Y-42698178D02*
X77129600Y-42362303D01*
X77129600Y-49744497D02*
X76793724Y-49408622D01*
X77465476Y-49408622D02*
X77129600Y-49744497D01*
X81550402Y-48203847D02*
X81792611Y-47961638D01*
X80829153Y-47482598D02*
X81071362Y-47240389D01*
D11*
X82847700Y-56050200D02*
X66847700Y-56050200D01*
X66847700Y-56050200D02*
X66847700Y-36050200D01*
X66847700Y-36050200D02*
X86847700Y-36050200D01*
X86847700Y-36050200D02*
X86847700Y-56050200D01*
X86847700Y-56050200D02*
X82847700Y-56050200D01*
D10*
X83859600Y-44653400D02*
X83859600Y-44453400D01*
X87999600Y-47453400D02*
X88209600Y-47253400D01*
X87999600Y-46153400D02*
X88209600Y-46353400D01*
X86709600Y-47453400D02*
X87999600Y-47453400D01*
X88209600Y-47253400D02*
X88209600Y-46353400D01*
X87999600Y-46153400D02*
X86709600Y-46153400D01*
X86709600Y-48903400D02*
X86709600Y-43203400D01*
X83859600Y-47653400D02*
X83859600Y-45953400D01*
X84909600Y-49503400D02*
X85699600Y-49503400D01*
X85699600Y-42603400D02*
X84909600Y-42603400D01*
X81411329Y-43713880D02*
X81169120Y-43471671D01*
X80690080Y-44435129D02*
X80447871Y-44192920D01*
D11*
X78904774Y-48906070D02*
X79477194Y-49478490D01*
X79578209Y-49512162D01*
X79645553Y-49512162D01*
X79746568Y-49478490D01*
X79881255Y-49343803D01*
X79914927Y-49242788D01*
X79914927Y-49175444D01*
X79881255Y-49074429D01*
X79308835Y-48502009D01*
X80723049Y-48502009D02*
X80318988Y-48906070D01*
X80521018Y-48704040D02*
X79813912Y-47996933D01*
X79847583Y-48165292D01*
X79847583Y-48299979D01*
X79813912Y-48400994D01*
X80501749Y-47148687D02*
X79929329Y-47047672D01*
X80097688Y-47552748D02*
X79390581Y-46845642D01*
X79659955Y-46576267D01*
X79760970Y-46542596D01*
X79828314Y-46542596D01*
X79929329Y-46576267D01*
X80030344Y-46677283D01*
X80064016Y-46778298D01*
X80064016Y-46845642D01*
X80030344Y-46946657D01*
X79760970Y-47216031D01*
X80434406Y-45801817D02*
X80097688Y-46138535D01*
X80400734Y-46508924D01*
X80400734Y-46441580D01*
X80434406Y-46340565D01*
X80602764Y-46172206D01*
X80703780Y-46138535D01*
X80771123Y-46138535D01*
X80872138Y-46172206D01*
X81040497Y-46340565D01*
X81074169Y-46441580D01*
X81074169Y-46508924D01*
X81040497Y-46609939D01*
X80872138Y-46778298D01*
X80771123Y-46811970D01*
X80703780Y-46811970D01*
X75800080Y-47502580D02*
X75323890Y-47502580D01*
X75323890Y-46502580D01*
X76514366Y-47454961D02*
X76419128Y-47502580D01*
X76228652Y-47502580D01*
X76133414Y-47454961D01*
X76085795Y-47359723D01*
X76085795Y-46978771D01*
X76133414Y-46883533D01*
X76228652Y-46835914D01*
X76419128Y-46835914D01*
X76514366Y-46883533D01*
X76561985Y-46978771D01*
X76561985Y-47074009D01*
X76085795Y-47169247D01*
X77419128Y-47502580D02*
X77419128Y-46502580D01*
X77419128Y-47454961D02*
X77323890Y-47502580D01*
X77133414Y-47502580D01*
X77038176Y-47454961D01*
X76990557Y-47407342D01*
X76942938Y-47312104D01*
X76942938Y-47026390D01*
X76990557Y-46931152D01*
X77038176Y-46883533D01*
X77133414Y-46835914D01*
X77323890Y-46835914D01*
X77419128Y-46883533D01*
X78419128Y-47502580D02*
X77847700Y-47502580D01*
X78133414Y-47502580D02*
X78133414Y-46502580D01*
X78038176Y-46645438D01*
X77942938Y-46740676D01*
X77847700Y-46788295D01*
X82184361Y-47386733D02*
X82231980Y-47243876D01*
X82231980Y-47005780D01*
X82184361Y-46910542D01*
X82136742Y-46862923D01*
X82041504Y-46815304D01*
X81946266Y-46815304D01*
X81851028Y-46862923D01*
X81803409Y-46910542D01*
X81755790Y-47005780D01*
X81708171Y-47196257D01*
X81660552Y-47291495D01*
X81612933Y-47339114D01*
X81517695Y-47386733D01*
X81422457Y-47386733D01*
X81327219Y-47339114D01*
X81279600Y-47291495D01*
X81231980Y-47196257D01*
X81231980Y-46958161D01*
X81279600Y-46815304D01*
X81231980Y-46481971D02*
X82231980Y-46243876D01*
X81517695Y-46053400D01*
X82231980Y-45862923D01*
X81231980Y-45624828D01*
X82231980Y-44720066D02*
X82231980Y-45291495D01*
X82231980Y-45005780D02*
X81231980Y-45005780D01*
X81374838Y-45101019D01*
X81470076Y-45196257D01*
X81517695Y-45291495D01*
X79548047Y-45099250D02*
X79480704Y-45099250D01*
X79346017Y-45031906D01*
X79278673Y-44964563D01*
X79211330Y-44829875D01*
X79211330Y-44695188D01*
X79245001Y-44594173D01*
X79346017Y-44425814D01*
X79447032Y-44324799D01*
X79615391Y-44223784D01*
X79716406Y-44190112D01*
X79851093Y-44190112D01*
X79985780Y-44257456D01*
X80053124Y-44324799D01*
X80120467Y-44459486D01*
X80120467Y-44526830D01*
X80154139Y-45840028D02*
X79750078Y-45435967D01*
X79952108Y-45637998D02*
X80659215Y-44930891D01*
X80490856Y-44964563D01*
X80356169Y-44964563D01*
X80255154Y-44930891D01*
M02*
